<svg width="1194" height="1194" xmlns="http://www.w3.org/2000/svg" xmlns:xlink="http://www.w3.org/1999/xlink" xml:space="preserve" overflow="hidden"><g><rect x="0" y="0" width="1194" height="1194" fill="#B200FF"/><path d="M124 597C124 335.769 335.769 124 597 124 858.231 124 1070 335.769 1070 597 1070 858.231 858.231 1070 597 1070 335.769 1070 124 858.231 124 597ZM225.25 597C225.25 802.312 391.688 968.75 597 968.75 802.312 968.75 968.75 802.312 968.75 597 968.75 391.688 802.312 225.25 597 225.25 391.688 225.25 225.25 391.688 225.25 597Z" fill="#FFFFFF" fill-rule="evenodd"/><path d="M832.007 715.071C766.798 844.862 608.72 897.216 478.929 832.007 431.695 808.276 392.708 770.862 367.053 724.644L463.318 671.207C504.301 745.038 597.377 771.666 671.207 730.682 698.076 715.767 719.827 693.102 733.624 665.642Z" fill="#FFFFFF" fill-rule="evenodd"/></g></svg>