<svg width="2509" height="585" xmlns="http://www.w3.org/2000/svg" xmlns:xlink="http://www.w3.org/1999/xlink" xml:space="preserve" overflow="hidden"><defs><filter id="fx0" x="-10%" y="-10%" width="120%" height="120%" filterUnits="userSpaceOnUse" primitiveUnits="userSpaceOnUse"><feComponentTransfer color-interpolation-filters="sRGB"><feFuncR type="discrete" tableValues="0 0"/><feFuncG type="discrete" tableValues="0 0"/><feFuncB type="discrete" tableValues="0 0"/><feFuncA type="linear" slope="0.4" intercept="0"/></feComponentTransfer><feGaussianBlur stdDeviation="0 0"/></filter><clipPath id="clip1"><rect x="1" y="1" width="2493" height="569"/></clipPath><linearGradient x1="1247.2" y1="8.20399" x2="1247.2" y2="562.205" gradientUnits="userSpaceOnUse" spreadMethod="reflect" id="fill2"><stop offset="0" stop-color="#FFFFFF" stop-opacity="0.901961"/><stop offset="0.01" stop-color="#FFFFFF" stop-opacity="0.901961"/><stop offset="0.99" stop-color="#FFFFFF"/><stop offset="1" stop-color="#FFFFFF"/></linearGradient><linearGradient x1="1239" y1="1854" x2="1239" y2="2408" gradientUnits="userSpaceOnUse" spreadMethod="reflect" id="fill3"><stop offset="0" stop-color="#FFFFFF" stop-opacity="0.901961"/><stop offset="0.01" stop-color="#FFFFFF" stop-opacity="0.901961"/><stop offset="0.99" stop-color="#FFFFFF"/><stop offset="1" stop-color="#FFFFFF"/></linearGradient></defs><g transform="translate(7 -1847)"><g clip-path="url(#clip1)" filter="url(#fx0)" transform="translate(8 1862)"><g><path d="M1096.46 8.2325 1215.33 8.47682 1230.13 8.35881C1318.33 8.03256 1418.36 8.28085 1531.79 8.56199 2439.24 10.8111 2482.76 8.02282 2485.96 285.383 2489.17 562.743 2474.38 562.204 1531.79 562.204L1366.85 562.163 1256.75 562.204 1245.23 562.201 1237.54 562.204 1072.69 562.163 962.502 562.204C19.9177 562.204 11.5339 564.601 8.33231 285.383 5.33066 23.6162 49.0275 7.38584 802.209 8.23286L922.918 8.48079 944.183 8.32994C985.876 8.19352 1030.18 8.1798 1077.25 8.23286L1083 8.24477Z" stroke="#FFFFFF" stroke-width="14" stroke-miterlimit="8" fill="url(#fill2)" fill-rule="evenodd"/><path d="M127.903 47.0037 131.939 55.8286C134.561 71.4511 126.217 91.1574 109.268 105.711 86.6682 125.117 57.3278 128.015 43.7339 112.183L40.3969 104.886 50.7532 91.4636C67.3825 73.7819 90.2809 59.8255 121.685 48.8238L127.903 47.0037Z" fill="#FFFFFF" fill-rule="evenodd"/></g></g><path d="M1088.25 1854.03 1207.12 1854.27 1221.92 1854.15C1310.13 1853.83 1410.16 1854.08 1523.59 1854.36 2431.03 1856.61 2474.56 1853.82 2477.76 2131.18 2480.96 2408.54 2466.17 2408 1523.59 2408L1358.64 2407.96 1248.55 2408 1237.02 2408 1229.34 2408 1064.49 2407.96 954.297 2408C11.7132 2408 3.32939 2410.4 0.127776 2131.18-2.87388 1869.41 40.823 1853.18 794.005 1854.03L914.714 1854.28 935.979 1854.13C977.672 1853.99 1021.97 1853.98 1069.05 1854.03L1074.79 1854.04Z" stroke="#FFFFFF" stroke-width="13.75" stroke-miterlimit="8" fill="url(#fill3)" fill-rule="evenodd"/><path d="M119.699 1892.8 123.734 1901.62C126.357 1917.25 118.013 1936.95 101.063 1951.51 78.4636 1970.91 49.1233 1973.81 35.5294 1957.98L32.1923 1950.68 42.5486 1937.26C59.178 1919.58 82.0763 1905.62 113.48 1894.62L119.699 1892.8Z" fill="#FFFFFF" fill-rule="evenodd"/></g></svg>