<svg width="1939" height="585" xmlns="http://www.w3.org/2000/svg" xmlns:xlink="http://www.w3.org/1999/xlink" xml:space="preserve" overflow="hidden"><defs><filter id="fx0" x="-10%" y="-10%" width="120%" height="120%" filterUnits="userSpaceOnUse" primitiveUnits="userSpaceOnUse"><feComponentTransfer color-interpolation-filters="sRGB"><feFuncR type="discrete" tableValues="0 0"/><feFuncG type="discrete" tableValues="0 0"/><feFuncB type="discrete" tableValues="0 0"/><feFuncA type="linear" slope="0.4" intercept="0"/></feComponentTransfer><feGaussianBlur stdDeviation="0 0"/></filter><clipPath id="clip1"><rect x="1" y="1" width="1923" height="569"/></clipPath><linearGradient x1="962.205" y1="8.20428" x2="962.205" y2="562.205" gradientUnits="userSpaceOnUse" spreadMethod="reflect" id="fill2"><stop offset="0" stop-color="#FFFFFF" stop-opacity="0.901961"/><stop offset="0.01" stop-color="#FFFFFF" stop-opacity="0.901961"/><stop offset="0.99" stop-color="#FFFFFF"/><stop offset="1" stop-color="#FFFFFF"/></linearGradient><linearGradient x1="954" y1="1235" x2="954" y2="1789" gradientUnits="userSpaceOnUse" spreadMethod="reflect" id="fill3"><stop offset="0" stop-color="#FFFFFF" stop-opacity="0.901961"/><stop offset="0.01" stop-color="#FFFFFF" stop-opacity="0.901961"/><stop offset="0.99" stop-color="#FFFFFF"/><stop offset="1" stop-color="#FFFFFF"/></linearGradient></defs><g transform="translate(7 -1228)"><g clip-path="url(#clip1)" filter="url(#fx0)" transform="translate(8 1243)"><g><path d="M8.33222 285.383C5.13184 6.16514 55.0436 6.31338 962.148 8.56231 1869.25 10.8112 1912.76 8.02319 1915.96 285.383 1919.16 562.743 1904.38 562.204 962.148 562.204 19.9133 562.204 11.5326 564.601 8.33222 285.383Z" stroke="#FFFFFF" stroke-width="14" stroke-miterlimit="8" fill="url(#fill2)" fill-rule="evenodd"/><path d="M127.903 46.9712 131.939 55.796C134.561 71.4185 126.217 91.1248 109.268 105.679 86.6682 125.084 57.3278 127.982 43.7339 112.151L40.3969 104.854 50.7532 91.431C67.3825 73.7493 90.2809 59.7929 121.685 48.7912L127.903 46.9712Z" fill="#FFFFFF" fill-rule="evenodd"/></g></g><path d="M0.127693 1512.18C-3.07269 1232.96 46.8391 1233.11 953.944 1235.36 1861.05 1237.61 1904.56 1234.82 1907.76 1512.18 1910.96 1789.54 1896.18 1789 953.944 1789 11.7088 1789 3.32808 1791.4 0.127693 1512.18Z" stroke="#FFFFFF" stroke-width="13.75" stroke-miterlimit="8" fill="url(#fill3)" fill-rule="evenodd"/><path d="M119.699 1273.77 123.734 1282.59C126.357 1298.21 118.013 1317.92 101.063 1332.47 78.4636 1351.88 49.1233 1354.78 35.5294 1338.95L32.1923 1331.65 42.5486 1318.23C59.178 1300.54 82.0763 1286.59 113.48 1275.59L119.699 1273.77Z" fill="#FFFFFF" fill-rule="evenodd"/></g></svg>