<svg width="985" height="580" xmlns="http://www.w3.org/2000/svg" xmlns:xlink="http://www.w3.org/1999/xlink" xml:space="preserve" overflow="hidden"><defs><filter id="fx0" x="-10%" y="-10%" width="120%" height="120%" filterUnits="userSpaceOnUse" primitiveUnits="userSpaceOnUse"><feComponentTransfer color-interpolation-filters="sRGB"><feFuncR type="discrete" tableValues="0 0"/><feFuncG type="discrete" tableValues="0 0"/><feFuncB type="discrete" tableValues="0 0"/><feFuncA type="linear" slope="0.4" intercept="0"/></feComponentTransfer><feGaussianBlur stdDeviation="0 0"/></filter><clipPath id="clip1"><rect x="1" y="1" width="969" height="563"/></clipPath><linearGradient x1="485.205" y1="8.20453" x2="485.205" y2="556.204" gradientUnits="userSpaceOnUse" spreadMethod="reflect" id="fill2"><stop offset="0" stop-color="#2E2E2E" stop-opacity="0.901961"/><stop offset="0.01" stop-color="#2E2E2E" stop-opacity="0.901961"/><stop offset="0.99" stop-color="#2E2E2E"/><stop offset="1" stop-color="#2E2E2E"/></linearGradient><linearGradient x1="477" y1="0" x2="477" y2="548" gradientUnits="userSpaceOnUse" spreadMethod="reflect" id="fill3"><stop offset="0" stop-color="#2E2E2E" stop-opacity="0.901961"/><stop offset="0.01" stop-color="#2E2E2E" stop-opacity="0.901961"/><stop offset="0.99" stop-color="#2E2E2E"/><stop offset="1" stop-color="#2E2E2E"/></linearGradient></defs><g transform="translate(7 8)"><g clip-path="url(#clip1)" filter="url(#fx0)" transform="translate(8 8)"><g><path d="M440.855 8.20453 539.416 10.5914C934.488 23.7511 959.564 74.1635 961.964 282.083 964.364 490.003 956.65 541.68 555.137 554.523L481.088 556.204 416.059 554.785C16.0472 542.376 10.7331 491.396 8.33262 282.083 5.93248 72.7704 33.4078 20.5259 429.98 8.43359Z" stroke="#2E2E2E" stroke-width="14" stroke-miterlimit="8" fill="url(#fill2)" fill-rule="evenodd"/><path d="M127.903 43.3401 131.939 52.1649C134.561 67.7875 126.217 87.4937 109.268 102.048 86.6682 121.453 57.3278 124.351 43.7339 108.52L40.3969 101.223 50.7532 87.8C67.3825 70.1182 90.2809 56.1618 121.685 45.1601L127.903 43.3401Z" fill="#2E2E2E" fill-rule="evenodd"/></g></g><path d="M432.651 0 531.212 2.38687C926.284 15.5466 951.359 65.959 953.759 273.879 956.159 481.799 948.445 533.476 546.933 546.319L472.883 548 407.855 546.58C7.84268 534.172 2.52859 483.192 0.128089 273.879-2.27205 64.5659 25.2033 12.3214 421.775 0.229056Z" stroke="#2E2E2E" stroke-width="13.75" stroke-miterlimit="8" fill="url(#fill3)" fill-rule="evenodd"/><path d="M119.699 35.1356 123.734 43.9604C126.357 59.5829 118.013 79.2892 101.063 93.8433 78.4636 113.249 49.1233 116.146 35.5294 100.315L32.1923 93.018 42.5486 79.5954C59.178 61.9137 82.0763 47.9573 113.48 36.9556L119.699 35.1356Z" fill="#2E2E2E" fill-rule="evenodd"/></g></svg>