<svg width="1337" height="584" xmlns="http://www.w3.org/2000/svg" xmlns:xlink="http://www.w3.org/1999/xlink" xml:space="preserve" overflow="hidden"><defs><filter id="fx0" x="-10%" y="-10%" width="120%" height="120%" filterUnits="userSpaceOnUse" primitiveUnits="userSpaceOnUse"><feComponentTransfer color-interpolation-filters="sRGB"><feFuncR type="discrete" tableValues="0 0"/><feFuncG type="discrete" tableValues="0 0"/><feFuncB type="discrete" tableValues="0 0"/><feFuncA type="linear" slope="0.4" intercept="0"/></feComponentTransfer><feGaussianBlur stdDeviation="0 0"/></filter><clipPath id="clip1"><rect x="1" y="1" width="1321" height="568"/></clipPath><linearGradient x1="661.205" y1="8.20459" x2="661.205" y2="561.205" gradientUnits="userSpaceOnUse" spreadMethod="reflect" id="fill2"><stop offset="0" stop-color="#FFFFFF" stop-opacity="0.901961"/><stop offset="0.01" stop-color="#FFFFFF" stop-opacity="0.901961"/><stop offset="0.99" stop-color="#FFFFFF"/><stop offset="1" stop-color="#FFFFFF"/></linearGradient><linearGradient x1="653" y1="617" x2="653" y2="1170" gradientUnits="userSpaceOnUse" spreadMethod="reflect" id="fill3"><stop offset="0" stop-color="#FFFFFF" stop-opacity="0.901961"/><stop offset="0.01" stop-color="#FFFFFF" stop-opacity="0.901961"/><stop offset="0.99" stop-color="#FFFFFF"/><stop offset="1" stop-color="#FFFFFF"/></linearGradient></defs><g transform="translate(7 -610)"><g clip-path="url(#clip1)" filter="url(#fx0)" transform="translate(8 625)"><g><path d="M557.15 8.20459 661.339 8.74527C1277.49 13.5142 1311.16 41.7378 1313.96 284.618 1316.76 527.498 1305.8 557.445 671.689 561.136L649.996 561.205 524.592 560.035C16.9546 552.647 10.9334 511.66 8.33264 284.618 5.73184 57.5756 38.199 15.103 537.09 8.36495Z" stroke="#FFFFFF" stroke-width="14" stroke-miterlimit="8" fill="url(#fill2)" fill-rule="evenodd"/><path d="M127.903 45.6726 131.939 54.4974C134.561 70.1199 126.217 89.8262 109.268 104.38 86.6682 123.786 57.3278 126.683 43.7339 110.852L40.3969 103.555 50.7532 90.1325C67.3825 72.4507 90.2809 58.4943 121.685 47.4926L127.903 45.6726Z" fill="#FFFFFF" fill-rule="evenodd"/></g></g><path d="M548.945 617 653.134 617.541C1269.29 622.31 1302.96 650.533 1305.76 893.413 1308.56 1136.29 1297.59 1166.24 663.484 1169.93L641.791 1170 516.387 1168.83C8.75004 1161.44 2.72891 1120.46 0.128109 893.413-2.47269 666.371 29.9945 623.898 528.886 617.16Z" stroke="#FFFFFF" stroke-width="13.75" stroke-miterlimit="8" fill="url(#fill3)" fill-rule="evenodd"/><path d="M119.699 654.468 123.734 663.293C126.357 678.915 118.013 698.622 101.063 713.176 78.4636 732.581 49.1233 735.479 35.5294 719.648L32.1923 712.351 42.5486 698.928C59.178 681.246 82.0763 667.29 113.48 656.288L119.699 654.468Z" fill="#FFFFFF" fill-rule="evenodd"/></g></svg>