<svg width="2710" height="1162" xmlns="http://www.w3.org/2000/svg" xmlns:xlink="http://www.w3.org/1999/xlink" xml:space="preserve" overflow="hidden"><defs><clipPath id="clip0"><rect x="845" y="362" width="2710" height="1162"/></clipPath></defs><g clip-path="url(#clip0)" transform="translate(-845 -362)"><rect x="845" y="362" width="2710" height="1162" fill="#FFFFFF" fill-opacity="0"/><path d="M1389.71 1060.35 1400.95 1063.19 1401.02 1063.19 1401.87 1063.5 1403.62 1063.43 1407.61 1063.43 1418.89 1060.63 1418.88 1060.68 1418.95 1064.26 1418.87 1064.4C1415.79 1068.34 1410.97 1070.87 1405.43 1070.87 1399.89 1070.87 1395.07 1068.34 1391.99 1064.4ZM1377.79 990.106 1400.38 1017.57 1397.62 1019C1394.54 1019.89 1391.18 1018.96 1389 1016.32 1389 1016.32 1389 1016.32 1388.99 1016.31L1373 997.015 1377.43 990.558 1377.57 990.417ZM1301.41 949.164 1356.71 987.052 1355.21 988.012C1354.16 988.686 1353.3 989.542 1352.63 990.512L1352.5 990.826 1352.35 990.887C1350.27 991.27 1348.05 990.827 1346.1 989.487L1346.11 989.497 1301.36 958.621 1300.31 957.539 1299.67 955.922C1299.29 953.869 1299.71 951.657 1301.03 949.726 1301.03 949.724 1301.03 949.722 1301.03 949.721ZM1539.5 930.956 1547.64 1009.82 1429.19 1038.9 1427.42 1038.97 1412.35 1042.66 1412.35 1035 1412.35 1035 1412.35 1034.79 1412.21 1034.82 1412.21 1034.38 1412.44 1034.26 1412.32 1034.11 1412.42 1034.06 1412.21 1033.69 1412.21 1031.36 1413.28 1030.5 1413.38 1030.52C1415.54 1030.64 1417.74 1029.98 1419.54 1028.52L1499.61 963.785C1501.5 962.263 1502.69 960.049 1502.93 957.64L1503.55 951.33 1510.08 951.95C1512.43 952.173 1514.78 951.467 1516.62 949.984L1516.88 949.771 1517.07 949.672 1536.35 934.084C1537.52 933.136 1538.53 932.058 1539.5 930.956ZM1437 900.142 1437.22 900.255C1438.33 900.582 1439.51 900.695 1440.68 900.577L1444.49 900.189 1445.14 903.127 1446.53 905.52 1446.73 907.482C1447.79 910.845 1450.78 913.418 1454.51 913.772L1457.06 914.015 1457.71 918.102 1459.5 921.334 1459.66 922.873C1460.72 926.236 1463.71 928.808 1467.44 929.163L1469.82 929.389 1470.5 933.628 1472.48 937.21 1472.59 938.26C1473.65 941.623 1476.64 944.195 1480.37 944.55L1481.21 944.63 1481.34 951.665 1414.88 1006.41 1388.49 974.62 1435.55 906.509C1436.26 905.482 1436.72 904.359 1436.96 903.208ZM1483.15 863.773 1484.87 865.17 1491.85 868.814 1525.32 908.65 1525.62 911.662C1525.41 913.768 1524.37 915.801 1522.53 917.32 1522.53 917.32 1522.53 917.323 1522.53 917.323L1508.72 928.639 1501.18 927.025 1500.85 923.85C1500.49 922.729 1499.93 921.696 1499.19 920.803L1498.49 920.229 1497.24 918.083C1496.02 916.6 1494.57 915.416 1492.99 914.52L1488.16 912.774 1488.23 911.97C1488.24 911.961 1488.24 911.951 1488.24 911.941 1488.47 909.453 1487.68 907.105 1486.21 905.32L1485.72 904.917 1484.38 902.5C1484.38 902.5 1484.38 902.499 1484.38 902.498 1483.16 901.027 1481.71 899.854 1480.13 898.966L1475.18 897.191 1475.25 896.489C1475.25 896.479 1475.26 896.469 1475.26 896.458 1475.49 893.971 1474.7 891.623 1473.23 889.838L1473.03 889.677 1471.54 886.984C1471.54 886.983 1471.54 886.983 1471.54 886.982 1470.46 885.676 1469.19 884.596 1467.82 883.74L1464.16 882.168 1464.16 882.159 1464.41 881.352 1464.41 881.349 1464.63 880.645C1465 879.479 1465.12 878.264 1465 877.072L1464.72 876.156 1465.21 877.067 1476.27 868.148 1477.23 866.787 1478.84 865.487 1478.84 865.487C1479.78 864.73 1480.81 864.2 1481.89 863.887ZM1366.26 861.082C1367.35 864.079 1369.3 866.781 1372.07 868.7 1372.09 868.715 1372.11 868.729 1372.13 868.744 1375.27 870.883 1378.95 871.656 1382.52 871.327 1383.01 873.049 1383.76 874.697 1384.78 876.184L1385.02 876.424 1385.13 877.031C1386.04 881.945 1390.76 885.192 1395.67 884.284 1395.69 884.281 1395.71 884.277 1395.73 884.274L1399.48 883.556 1401.37 887.573 1401.62 887.824 1401.75 888.499C1402.67 893.385 1407.36 896.613 1412.25 895.727L1414.77 895.272 1416.69 901.515 1369.64 969.896 1369.61 969.998 1367.98 972.362 1311.99 933.7 1356.48 868.54 1357.67 865.718 1358.75 864.126 1359.74 861.783 1361.61 861.896C1363.18 861.79 1364.73 861.5 1366.26 861.082ZM1531.88 857.227 1535.4 891.316 1510.92 861.717ZM1278.61 857.18 1331.3 868.798 1289.98 928.612 1289.42 929.151 1284.28 936.651C1284.28 936.657 1284.27 936.661 1284.27 936.667 1278.14 945.64 1278.31 957.224 1283.81 965.943L1284.75 966.92 1285.33 968.399C1287.15 971.29 1289.57 973.862 1292.54 975.914 1292.54 975.915 1292.54 975.915 1292.55 975.916L1336.61 1006.59C1342.51 1010.71 1349.65 1012.07 1356.24 1010.87L1359.54 1009.54 1358.87 1009.98 1358.89 1010 1358.8 1010.06 1375.36 1030.41C1375.36 1030.42 1375.37 1030.42 1375.37 1030.43 1379.92 1036 1386.41 1039.28 1393.06 1039.94 1393.41 1039.93 1393.77 1039.89 1394.12 1039.83L1394.12 1042.42 1379.86 1038.82 1378.05 1038.73 1263.33 1009.71ZM1393.72 814.207C1395.84 813.823 1398.13 814.248 1400.08 815.573L1444.91 846.105C1444.92 846.111 1444.93 846.116 1444.93 846.121 1448.83 848.755 1449.73 853.603 1447.07 857.409 1447.07 857.413 1447.07 857.417 1447.06 857.421L1436.95 871.959C1434.2 871.59 1431.44 871.792 1428.78 872.516 1427.68 869.545 1425.72 866.878 1422.95 864.999 1419.79 862.834 1416.08 862.052 1412.49 862.389 1411.5 858.955 1409.44 855.82 1406.32 853.699 1403.16 851.545 1399.46 850.758 1395.88 851.089 1394.89 847.659 1392.85 844.526 1389.74 842.413 1386.93 840.49 1383.69 839.635 1380.49 839.694 1380.22 837.069 1379.47 834.538 1378.19 832.192L1388.28 817.691C1389.61 815.783 1391.59 814.591 1393.72 814.207ZM1395.52 796.034C1387.03 795.969 1378.63 799.909 1373.45 807.328 1373.44 807.332 1373.44 807.337 1373.44 807.341L1359.47 827.421C1356.99 830.981 1357.39 835.798 1360.42 838.904L1362.53 841.074C1362.77 841.623 1362.81 842.229 1362.34 842.906L1362.2 843.236 1360.89 843.85 1358.13 842.679C1354.18 840.998 1349.59 842.328 1347.15 845.863L1345.35 848.465 1273.06 832.489C1271.84 832.219 1270.63 832.209 1269.47 832.423 1268.31 832.636 1267.22 833.073 1266.24 833.695L1263.98 835.849 1262.48 835.823C1259.02 836.464 1256.1 839.114 1255.29 842.774 1255.21 843.118 1255.16 843.466 1255.12 843.817L1236.61 1027.73C1236.16 1032.2 1239.05 1036.31 1243.4 1037.41L1374.66 1070.48 1376.35 1073.56C1382.69 1082.84 1393.4 1088.97 1405.43 1088.97 1417.46 1088.97 1428.17 1082.84 1434.51 1073.56L1436.67 1069.63 1567.54 1037.57C1571.93 1036.49 1574.85 1032.34 1574.39 1027.85L1555.35 843.942C1555.31 843.619 1555.26 843.298 1555.19 842.982 1554.41 839.316 1551.51 836.649 1548.05 835.986L1546.47 836.004 1544.26 833.874C1542.31 832.617 1539.89 832.102 1537.45 832.627L1487.97 843.25 1486.31 842.806C1484.2 842.502 1482.06 842.447 1479.94 842.646 1477.39 842.884 1474.87 843.487 1472.46 844.465L1466.92 847.769 1466.07 847.952 1462.37 838.61C1460.52 835.724 1458.07 833.163 1455.08 831.135L1410.25 800.6C1410.24 800.596 1410.23 800.591 1410.23 800.587 1405.74 797.551 1400.61 796.071 1395.52 796.034ZM1163 700 1648 700 1648 1185 1163 1185Z" fill="#B200FF" fill-rule="evenodd"/><path d="M2932.67 901.124C2923.12 901.124 2914.25 903.14 2906.04 907.17 2897.84 911.2 2890.68 916.948 2884.56 924.413 2878.44 931.878 2873.59 940.686 2870.01 950.837 2866.44 960.99 2864.64 972.335 2864.64 984.876 2864.64 997.417 2866.44 1008.76 2870.01 1018.92 2873.59 1029.07 2878.44 1037.88 2884.56 1045.34 2890.68 1052.8 2897.84 1058.55 2906.04 1062.58 2914.25 1066.61 2923.12 1068.63 2932.67 1068.63 2942.22 1068.63 2951.09 1066.61 2959.3 1062.58 2967.5 1058.55 2974.67 1052.8 2980.78 1045.34 2986.9 1037.88 2991.75 1029.07 2995.33 1018.92 2998.91 1008.76 3000.7 997.417 3000.7 984.876 3000.7 972.335 2998.91 960.99 2995.33 950.837 2991.75 940.686 2986.9 931.878 2980.78 924.413 2974.67 916.948 2967.5 911.2 2959.3 907.17 2951.09 903.14 2942.22 901.124 2932.67 901.124ZM2291.04 859.471 2348.33 859.471 2348.33 1110.28 2291.04 1110.28ZM3237 853.201 3237 903.81C3218.2 902.914 3201.94 907.468 3188.22 917.471 3174.49 927.473 3165.69 940.686 3161.81 957.108 3160.62 961.885 3159.65 968.305 3158.91 976.367 3158.16 984.428 3157.79 994.58 3157.79 1006.82L3157.79 1110.28 3100.5 1110.28 3100.5 859.471 3157.79 859.471 3157.79 880.521C3168.23 870.668 3180.39 863.652 3194.26 859.471 3208.13 855.29 3222.38 853.201 3237 853.201ZM2932.67 852.752C2950.57 852.752 2967.13 855.962 2982.35 862.382 2997.56 868.802 3010.77 877.76 3021.96 889.255 3033.14 900.75 3041.95 914.634 3048.36 930.908 3054.78 947.181 3057.98 965.17 3057.98 984.876 3057.98 1004.58 3054.78 1022.57 3048.36 1038.84 3041.95 1055.12 3033.14 1069 3021.96 1080.5 3010.77 1091.99 2997.56 1100.95 2982.35 1107.37 2967.13 1113.79 2950.57 1117 2932.67 1117 2914.77 1117 2898.14 1113.79 2882.77 1107.37 2867.4 1100.95 2854.13 1091.99 2842.94 1080.5 2831.75 1069 2823.02 1055.12 2816.76 1038.84 2810.49 1022.57 2807.36 1004.58 2807.36 984.876 2807.36 965.17 2810.49 947.181 2816.76 930.908 2823.02 914.634 2831.75 900.75 2842.94 889.255 2854.13 877.76 2867.4 868.802 2882.77 862.382 2898.14 855.962 2914.77 852.752 2932.67 852.752ZM2503.77 852.752C2527.94 852.752 2549.2 857.978 2567.55 868.428 2585.9 878.879 2600.44 893.211 2611.18 911.425L2567.77 940.089C2560.91 927.548 2552.11 917.918 2541.37 911.2 2530.63 904.482 2518.09 901.124 2503.77 901.124 2494.23 901.124 2485.35 903.14 2477.15 907.17 2468.94 911.2 2461.78 916.948 2455.66 924.413 2449.55 931.878 2444.7 940.686 2441.12 950.837 2437.54 960.99 2435.75 972.335 2435.75 984.876 2435.75 997.417 2437.54 1008.76 2441.12 1018.92 2444.7 1029.07 2449.55 1037.88 2455.66 1045.34 2461.78 1052.8 2468.94 1058.55 2477.15 1062.58 2485.35 1066.61 2494.23 1068.63 2503.77 1068.63 2519.89 1068.63 2533.91 1063.93 2545.84 1054.52 2557.78 1045.12 2566.73 1032.05 2572.7 1015.33L2618.35 1039.97C2613.87 1051.61 2607.9 1062.14 2600.44 1071.54 2592.98 1080.95 2584.33 1089.01 2574.49 1095.73 2564.64 1102.45 2553.75 1107.67 2541.81 1111.4 2529.88 1115.13 2517.2 1117 2503.77 1117 2485.87 1117 2469.24 1113.79 2453.87 1107.37 2438.51 1100.95 2425.23 1091.99 2414.04 1080.5 2402.85 1069 2394.13 1055.12 2387.86 1038.84 2381.59 1022.57 2378.46 1004.58 2378.46 984.876 2378.46 965.17 2381.59 947.181 2387.86 930.908 2394.13 914.634 2402.85 900.75 2414.04 889.255 2425.23 877.76 2438.51 868.802 2453.87 862.382 2469.24 855.962 2485.87 852.752 2503.77 852.752ZM2066.08 820.057 2066.08 950.39 2131.87 950.39C2142.01 950.39 2151.33 948.674 2159.84 945.239 2168.34 941.805 2175.65 937.103 2181.77 931.131 2187.88 925.159 2192.58 918.218 2195.86 910.305 2199.15 902.393 2200.79 893.957 2200.79 884.999 2200.79 876.042 2199.15 867.682 2195.86 859.92 2192.58 852.155 2187.88 845.288 2181.77 839.316 2175.65 833.345 2168.34 828.642 2159.84 825.208 2151.33 821.775 2142.01 820.057 2131.87 820.057ZM2667.28 792.738 2724.56 792.738 2724.56 859.471 2789.01 859.471 2789.01 907.842 2724.56 907.842 2724.56 1027.42C2724.56 1040.26 2727.17 1050.34 2732.4 1057.66 2737.62 1064.97 2745.9 1068.63 2757.23 1068.63 2761.11 1068.63 2766.04 1068.48 2772 1068.18 2777.97 1067.88 2783.64 1067.14 2789.01 1065.94L2789.01 1114.31C2781.85 1115.8 2775.36 1116.63 2769.54 1116.78 2763.72 1116.93 2758.73 1117 2754.55 1117 2738.73 1117 2725.31 1114.98 2714.27 1110.95 2703.23 1106.92 2694.21 1101.03 2687.19 1093.26 2680.18 1085.5 2675.11 1076.09 2671.98 1065.05 2668.84 1054 2667.28 1041.46 2667.28 1027.42L2667.28 907.842 2623.86 907.842 2623.86 859.471 2667.28 859.471ZM2007 769.895 2131.87 769.895C2150.96 769.895 2168.42 772.956 2184.23 779.076 2200.04 785.199 2213.54 793.484 2224.73 803.935 2235.92 814.385 2244.57 826.552 2250.69 840.437 2256.8 854.32 2259.86 869.175 2259.86 884.999 2259.86 900.824 2256.8 915.679 2250.69 929.564 2244.57 943.449 2235.92 955.69 2224.73 966.289 2213.54 976.889 2200.04 985.251 2184.23 991.371 2168.42 997.492 2150.96 1000.55 2131.87 1000.55L2066.08 1000.55 2066.08 1110.28 2007 1110.28ZM2288.36 769 2351.01 769 2351.01 831.703 2288.36 831.703Z" fill="#817E82" fill-rule="evenodd"/></g></svg>