<?xml version="1.0" encoding="UTF-8"?>
<svg overflow="hidden" viewBox="0 0 1880 1879" xml:space="preserve" xmlns="http://www.w3.org/2000/svg"><defs><clipPath id="a"><rect x="1260" y="298" width="1880" height="1879"/></clipPath></defs><g transform="translate(-1260 -298)" clip-path="url(#a)"><rect x="1260" y="298" width="1880" height="1879" fill-opacity="0"/><g fill-rule="evenodd"><path transform="matrix(1.0005 0 0 1 -25.358 11.936)" d="m1456 710.07 683.48 152.81c-0.08 3.272-0.16 6.544-0.23 9.815l10.4 4.92c21.29 8.238 46.94 13.049 74.57 13.049 27.62 0 53.28-4.811 74.56-13.049l10.4-4.92c-0.07-3.271-0.15-6.543-0.22-9.815l683.47-152.81 55.57 986.33-695.82 107.88v0l-20.99 3.26 20.99-3.26-5.08 9.38c-20.25 27.42-67.64 46.67-122.88 46.67s-102.64-19.25-122.88-46.67l-5.09-9.38-695.81-107.88 55.56-986.33z" fill="#FEFAF6" stroke="#FEFAF6" stroke-linecap="round" stroke-linejoin="round" stroke-miterlimit="10" stroke-width="231.64"/><path transform="matrix(1.0005 0 0 1 -25.358 11.936)" d="m1456 710.07 683.48 152.81c-0.08 3.272-0.16 6.544-0.23 9.815l10.4 4.92c21.29 8.238 46.94 13.049 74.57 13.049 27.62 0 53.28-4.811 74.56-13.049l10.4-4.92c-0.07-3.271-0.15-6.543-0.22-9.815l683.47-152.81 55.57 986.33-695.82 107.88v0l-20.99 3.26 20.99-3.26-5.08 9.38c-20.25 27.42-67.64 46.67-122.88 46.67s-102.64-19.25-122.88-46.67l-5.09-9.38-695.81-107.88 55.56-986.33z" fill="#FF7B63" stroke="#FF7B63" stroke-linecap="round" stroke-linejoin="round" stroke-miterlimit="10" stroke-width="185.31"/><path transform="matrix(1.0005 0 0 1 -25.358 11.936)" d="m1456 686.82 683.48 152.95c-0.08 3.274-0.16 6.549-0.23 9.824l10.4 4.924c21.29 8.246 46.94 13.061 74.57 13.061 27.62 0 53.28-4.815 74.56-13.061l10.4-4.924c-0.07-3.275-0.15-6.549-0.22-9.824l683.47-152.95 55.57 987.2-695.82 107.97v0l-20.99 3.27 20.99-3.27-5.08 9.4c-20.25 27.45-67.64 46.7-122.88 46.7s-102.64-19.25-122.88-46.7l-5.09-9.4-695.81-107.97 55.56-987.2z" fill="none" stroke="#FEFAF6" stroke-linecap="round" stroke-linejoin="round" stroke-miterlimit="10" stroke-width="69.491"/><path transform="matrix(1.0005 0 0 1 -25.358 11.936)" d="m2139 849.56 10.44 4.923c21.35 8.247 47.09 13.062 74.8 13.062 27.7 0 53.45-4.815 74.8-13.062l10.44-4.923 20.41 865.64 1.65 70.05 21.07-3.26-5.1 9.4c-20.31 27.45-67.86 46.7-123.27 46.7s-102.96-19.25-123.28-46.7l-5.09-9.4 21.07 3.26 1.64-70.05z" fill="#FF7B63" stroke="#FF7B63" stroke-linecap="round" stroke-linejoin="round" stroke-miterlimit="10" stroke-width="23.164"/><path transform="matrix(1.0005 0 0 1 -25.358 11.936)" d="m1456 686.82-55.55 987.45 716.65 111.26 22.22-945.72-683.32-152.99z" fill="#FEFAF6" stroke="#FF7B63" stroke-linecap="round" stroke-linejoin="round" stroke-miterlimit="10" stroke-width="23.164"/><path transform="matrix(-1.0005 0 0 1 3024.2 698.76)" d="M55.5546 0 0 987.45 716.654 1098.71 738.876 152.985 55.5546 0Z" fill="#FEFAF6" stroke="#FF7B63" stroke-linecap="round" stroke-linejoin="round" stroke-miterlimit="10" stroke-width="23.164"/><path transform="matrix(1.0005 0 0 1 -25.358 11.936)" d="m2993.6 1725.1c-17.16-24.4-10.29-73.64 30.53-91.7 40.8-18.06 52.13-3.12 86-33.34 0.47 44.28-7.74 77.28-40.23 96.38-4.68 52.1-59.13 53.06-76.3 28.66z" fill="none" stroke="#FEFAF6" stroke-linecap="round" stroke-linejoin="round" stroke-miterlimit="10" stroke-width="46.327"/><path transform="matrix(1.0005 0 0 1 -25.358 11.936)" d="m2993.6 1725.1c-17.16-24.4-10.29-73.64 30.53-91.7 40.8-18.06 52.13-3.12 86-33.34 0.47 44.28-7.74 77.28-40.23 96.38-4.68 52.1-59.13 53.06-76.3 28.66z" fill="#FF7B63"/><path transform="matrix(-1.0005 0 0 1 1438 1612)" d="m8.7858 125.04c-17.167-24.4-10.289-73.634 30.52-91.695 40.809-18.061 52.139-3.1258 86.012-33.344 0.462 44.285-7.746 77.281-40.232 96.384-4.6822 52.1-59.133 53.055-76.301 28.655z" fill="none" stroke="#FEFAF6" stroke-linecap="round" stroke-linejoin="round" stroke-miterlimit="10" stroke-width="46.327"/><path transform="matrix(-1.0005 0 0 1 1438 1612)" d="m8.7858 125.04c-17.167-24.4-10.289-73.634 30.52-91.695 40.809-18.061 52.139-3.1258 86.012-33.344 0.462 44.285-7.746 77.281-40.232 96.384-4.6822 52.1-59.133 53.055-76.301 28.655z" fill="#FF7B63"/><path transform="matrix(1.0005 0 0 1 -25.358 11.936)" d="m1454.8 686.32 143.18 32.213-151.61 118.39z" fill="#FF7B63"/><path transform="matrix(-1.0005 0 0 1 2977.2 698.25)" d="m8.4317 0-8.4317 150.6 151.62-118.39z" fill="#FF7B63"/><path transform="matrix(1.0005 0 0 1 -25.358 11.936)" d="m1942.5 1349.7 5.11-5.12 373.44-373.44c25.33 25.329 66.4 25.329 91.73 0v0l14.24-21.455c9.5-23.422 4.75-51.271-14.24-70.268l72.27-72.271c50.99-50.998 133.67-50.998 184.68 0l160.09 160.1c51.01 50.992 51.01 133.68 0 184.68l-72.27 72.27c-18.99-19-46.85-23.74-70.27-14.25l-21.44 14.25v0 0c-25.33 25.33-25.33 66.4 0 91.72l-373.45 373.45-5.12 5.11c-50.99 51-133.68 51-184.68 0l-160.09-160.1c-51.01-51-51.01-133.68 0-184.68z" fill="#FF7B63" stroke="#FEFAF6" stroke-linecap="round" stroke-linejoin="round" stroke-miterlimit="10" stroke-width="69.491"/><path transform="matrix(1.0005 0 0 1 -25.358 11.936)" d="m1942.5 1349.7 5.12-5.12 344.78 344.79-5.12 5.11c-50.99 51-133.68 51-184.68 0l-160.1-160.1c-51-51-51-133.68 0-184.68z" fill="#FF7B63" stroke="#FF7B63" stroke-linecap="round" stroke-linejoin="round" stroke-miterlimit="10" stroke-width="23.164"/><path transform="matrix(1.0005 0 0 1 -25.358 11.936)" d="m2412.8 879.44 72.28-72.271c50.99-50.998 133.67-50.998 184.68 0l160.09 160.1c51.01 50.992 51.01 133.68 0 184.68l-72.27 72.27c-18.99-19-46.85-23.74-70.27-14.25l-21.44 14.25-31.54-31.53 6.04-9.1c4.04-9.94 2.02-21.75-6.04-29.8-8.06-8.06-19.86-10.07-29.8-6.05l-9.09 6.05-36.66-36.65 6.05-9.1c4.02-9.93 2.01-21.74-6.05-29.8-8.05-8.06-19.87-10.07-29.8-6.04l-9.1 6.03-36.64-36.64 6.03-9.09c4.04-9.94 2.03-21.75-6.03-29.81-8.07-8.057-19.87-10.071-29.81-6.043l-9.1 6.043-31.52-31.53 14.24-21.455c9.5-23.422 4.75-51.271-14.25-70.268z" fill="#FF7B63" stroke="#FF7B63" stroke-linecap="round" stroke-linejoin="round" stroke-miterlimit="10" stroke-width="23.164"/><path transform="matrix(1.0005 0 0 1 -25.358 11.936)" d="m1947.6 1344.6 373.44-373.44c25.33 25.329 66.4 25.329 91.73 0v0l31.52 31.53v0c-10.74 10.74-10.74 28.16 0 38.9 10.75 10.75 28.16 10.75 38.91 0v0l36.64 36.64v0.01c-10.74 10.74-10.74 28.15 0 38.9 10.74 10.74 28.16 10.74 38.9 0v0l36.66 36.65v0c-10.75 10.74-10.75 28.16 0 38.9 10.73 10.74 28.15 10.74 38.89 0v-0.01l31.54 31.54v0c-25.33 25.33-25.33 66.4 0 91.72l-373.45 373.45z" fill="#FEFAF6" stroke="#FF7B63" stroke-linecap="round" stroke-linejoin="round" stroke-miterlimit="10" stroke-width="23.164"/><path transform="matrix(1.0005 0 0 1 -25.358 11.936)" d="m1668.3 1240.1 3.62-6.27 264.07-457.37c31.02 17.91 70.68 7.282 88.59-23.74v0l8.21-24.411c3.11-25.083-8.68-50.754-31.94-64.186l51.1-88.515c36.06-62.459 115.93-83.859 178.38-47.798l196.08 113.21c62.47 36.06 83.87 115.93 47.8 178.38l-51.1 88.515c-23.26-13.433-51.39-10.813-71.55 4.425l-17.05 19.314v0 1e-3c-17.91 31.02-7.27 70.687 23.75 88.587l-267.69 463.65c-36.06 62.46-115.92 83.86-178.39 47.8l-196.08-113.21c-62.45-36.06-83.86-115.93-47.8-178.39z" fill="#FF7B63" stroke="#FEFAF6" stroke-linecap="round" stroke-linejoin="round" stroke-miterlimit="10" stroke-width="69.491"/><path transform="matrix(1.0005 0 0 1 -25.358 11.936)" d="m1668.3 1240.1 3.62-6.27 422.27 243.8-3.62 6.27c-36.06 62.46-115.92 83.86-178.39 47.8l-196.08-113.21c-62.45-36.06-83.86-115.93-47.8-178.39z" fill="#FF7B63" stroke="#FF7B63" stroke-linecap="round" stroke-linejoin="round" stroke-miterlimit="10" stroke-width="23.164"/><path transform="matrix(1.0005 0 0 1 -25.358 11.936)" d="m2000.8 664.09 51.1-88.515c36.06-62.459 115.93-83.859 178.38-47.798l196.08 113.21c62.47 36.06 83.87 115.93 47.8 178.38l-51.1 88.515c-23.26-13.434-51.39-10.813-71.55 4.424l-17.05 19.315-38.61-22.295 3.48-10.353c1.32-10.638-3.68-21.525-13.54-27.223-9.88-5.696-21.81-4.586-30.36 1.877l-7.23 8.192-44.88-25.914 3.48-10.353c1.33-10.638-3.68-21.525-13.55-27.222-9.87-5.698-21.79-4.586-30.34 1.876l-7.23 8.191-44.89-25.913 3.49-10.353c1.31-10.639-3.69-21.526-13.56-27.223-9.86-5.696-21.79-4.585-30.34 1.876l-7.23 8.193-38.62-22.295 8.21-24.411c3.11-25.083-8.68-50.754-31.94-64.186z" fill="#FF7B63" stroke="#FF7B63" stroke-linecap="round" stroke-linejoin="round" stroke-miterlimit="10" stroke-width="23.164"/><path transform="matrix(1.0005 0 0 1 -25.358 11.936)" d="m1671.9 1233.8 264.07-457.37c31.02 17.91 70.68 7.282 88.59-23.74v0l38.62 22.295v0c-7.6 13.157-3.09 29.98 10.07 37.576 13.15 7.596 29.98 3.088 37.57-10.068v-1e-3l44.89 25.914v0c-7.6 13.158-3.09 29.98 10.07 37.576s29.98 3.089 37.58-10.069v0l44.87 25.914v1e-3c-7.59 13.156-3.09 29.979 10.07 37.575s29.98 3.088 37.58-10.068v-1e-3l38.61 22.295v1e-3c-17.91 31.02-7.27 70.687 23.75 88.587l-264.07 457.38z" fill="#FEFAF6" stroke="#FF7B63" stroke-linecap="round" stroke-linejoin="round" stroke-miterlimit="10" stroke-width="23.164"/></g></g></svg>
