<?xml version="1.0" encoding="UTF-8"?>
<svg overflow="hidden" viewBox="0 0 2228 2227" xml:space="preserve" xmlns="http://www.w3.org/2000/svg"><defs><clipPath id="a"><rect x="1086" y="124" width="2228" height="2227"/></clipPath></defs><g transform="translate(-1086 -124)" clip-path="url(#a)"><rect x="1086" y="124" width="2228" height="2227" fill="#FF7B63"/><path d="m1440.5 702.5 676.19 151.18c-0.07 3.237-0.15 6.474-0.22 9.711l10.29 4.867c21.06 8.15 46.44 12.91 73.77 12.91s52.71-4.76 73.77-12.91l10.29-4.867c-0.07-3.237-0.15-6.474-0.22-9.711l676.18-151.18 54.98 975.82-688.4 106.73v0l-20.77 3.22 20.77-3.22-5.03 9.28c-20.03 27.13-66.92 46.17-121.57 46.17s-101.54-19.04-121.57-46.17l-5.03-9.28-688.4-106.73 54.97-975.82z" fill="#FEFAF6" fill-rule="evenodd" stroke="#FEFAF6" stroke-linecap="round" stroke-linejoin="round" stroke-miterlimit="10" stroke-width="183.33"/><path d="m1440.5 679.5 676.19 151.32c-0.07 3.239-0.15 6.479-0.22 9.719l10.29 4.871c21.06 8.158 46.44 12.922 73.77 12.922s52.71-4.764 73.77-12.922l10.29-4.871c-0.07-3.24-0.15-6.479-0.22-9.719l676.18-151.32 54.98 976.68-688.4 106.82v0l-20.77 3.23 20.77-3.23-5.03 9.29c-20.03 27.16-66.92 46.21-121.57 46.21s-101.54-19.05-121.57-46.21l-5.03-9.29-688.4-106.82 54.97-976.68z" fill="#FF7B63" fill-rule="evenodd" stroke="#FF7B63" stroke-linecap="round" stroke-linejoin="round" stroke-miterlimit="10" stroke-width="68.75"/><path d="m2116.2 840.5 10.33 4.871c21.12 8.159 46.59 12.922 74 12.922s52.88-4.763 74-12.922l10.33-4.871 20.2 856.42 1.63 69.3 20.84-3.22-5.04 9.29c-20.1 27.16-67.14 46.21-121.96 46.21s-101.86-19.05-121.96-46.21l-5.04-9.29 20.84 3.22 1.63-69.3z" fill="#FEFAF6" fill-rule="evenodd" stroke="#FEFAF6" stroke-linecap="round" stroke-linejoin="round" stroke-miterlimit="10" stroke-width="22.917"/><path d="m1440.5 679.5-54.96 976.92 709.01 110.08 21.99-935.64-676.04-151.36z" fill="#FF7B63" fill-rule="evenodd" stroke="#FEFAF6" stroke-linecap="round" stroke-linejoin="round" stroke-miterlimit="10" stroke-width="22.917"/><path transform="matrix(-1 0 0 1 3015.5 679.5)" d="M54.9624 0 0 976.924 709.015 1087 731 151.354 54.9624 0Z" fill="#FF7B63" fill-rule="evenodd" stroke="#FEFAF6" stroke-linecap="round" stroke-linejoin="round" stroke-miterlimit="10" stroke-width="22.917"/><path d="m2961.7 1706.7c-16.98-24.14-10.18-72.85 30.2-90.72 40.37-17.87 51.58-3.09 85.09-32.99 0.46 43.81-7.66 76.46-39.8 95.36-4.63 51.54-58.5 52.49-75.49 28.35z" fill="#FF7B63" fill-rule="evenodd" stroke="#FF7B63" stroke-linecap="round" stroke-linejoin="round" stroke-miterlimit="10" stroke-width="45.833"/><path d="m2961.7 1706.7c-16.98-24.14-10.18-72.85 30.2-90.72 40.37-17.87 51.58-3.09 85.09-32.99 0.46 43.81-7.66 76.46-39.8 95.36-4.63 51.54-58.5 52.49-75.49 28.35z" fill="#FEFAF6" fill-rule="evenodd"/><path transform="matrix(-1 0 0 1 1447 1583)" d="m8.6921 123.71c-16.984-24.14-10.179-72.849 30.195-90.718 40.374-17.869 51.583-3.0925 85.095-32.988 0.457 43.813-7.663 76.457-39.803 95.357-4.6323 51.544-58.503 52.489-75.487 28.349z" fill="#FF7B63" fill-rule="evenodd" stroke="#FF7B63" stroke-linecap="round" stroke-linejoin="round" stroke-miterlimit="10" stroke-width="45.833"/><path transform="matrix(-1 0 0 1 1447 1583)" d="m8.6921 123.71c-16.984-24.14-10.179-72.849 30.195-90.718 40.374-17.869 51.583-3.0925 85.095-32.988 0.457 43.813-7.663 76.457-39.803 95.357-4.6323 51.544-58.503 52.489-75.487 28.349z" fill="#FEFAF6" fill-rule="evenodd"/><path d="M1439.34 679 1581 710.87 1431 828Z" fill="#FEFAF6" fill-rule="evenodd"/><path transform="matrix(-1 0 0 1 2969 679)" d="M8.34184 0 0 149 150 31.87Z" fill="#FEFAF6" fill-rule="evenodd"/><path d="m1921.8 1335.3 374.52-374.52c25.06 25.059 65.69 25.059 90.75 0v0l14.09-21.226c9.4-23.173 4.7-50.725-14.09-69.519l71.5-71.501c50.45-50.454 132.25-50.454 182.71 0l158.39 158.4c50.46 50.452 50.46 132.25 0 182.71l-71.5 71.5c-18.79-18.8-46.35-23.49-69.52-14.1l-21.22 14.1v0 0c-25.06 25.06-25.06 65.69 0 90.74l-374.53 374.53c-50.45 50.45-132.26 50.45-182.71 0l-158.39-158.4c-50.46-50.45-50.46-132.25 0-182.71z" fill="#FEFAF6" fill-rule="evenodd" stroke="#FF7B63" stroke-linecap="round" stroke-linejoin="round" stroke-miterlimit="10" stroke-width="68.75"/><path d="m1921.8 1335.3 5.07-5.06 341.1 341.11-5.06 5.06c-50.45 50.45-132.26 50.45-182.71 0l-158.4-158.4c-50.45-50.45-50.45-132.25 0-182.71z" fill="#FEFAF6" fill-rule="evenodd" stroke="#FEFAF6" stroke-linecap="round" stroke-linejoin="round" stroke-miterlimit="10" stroke-width="22.917"/><path d="m2387 870.06 71.51-71.501c50.45-50.454 132.25-50.454 182.71 0l158.39 158.4c50.46 50.452 50.46 132.25 0 182.71l-71.5 71.5c-18.79-18.8-46.35-23.49-69.52-14.1l-21.22 14.1-31.2-31.19 5.98-9.01c3.99-9.83 1.99-21.51-5.98-29.48s-19.65-9.96-29.48-5.98l-9 5.98-36.26-36.26 5.98-9c3.98-9.83 1.99-21.51-5.98-29.48-7.97-7.98-19.66-9.97-29.49-5.98l-9 5.97-36.25-36.25 5.97-9c3.99-9.83 2-21.517-5.97-29.488-7.98-7.971-19.66-9.964-29.49-5.979l-9 5.979-31.19-31.194 14.09-21.226c9.4-23.173 4.7-50.725-14.1-69.519z" fill="#FEFAF6" fill-rule="evenodd" stroke="#FEFAF6" stroke-linecap="round" stroke-linejoin="round" stroke-miterlimit="10" stroke-width="22.917"/><path d="m1926.8 1330.3 369.46-369.46c25.06 25.059 65.69 25.059 90.75 0v0l31.19 31.193v1e-3c-10.63 10.628-10.63 27.858 0 38.488s27.86 10.63 38.49 0v0l36.25 36.25v0.01c-10.63 10.62-10.63 27.85 0 38.48s27.86 10.63 38.49 0v0l36.26 36.26v0c-10.63 10.63-10.63 27.86 0 38.49 10.62 10.62 27.85 10.62 38.48 0v-0.01l31.2 31.2v0c-25.06 25.06-25.06 65.69 0 90.74l-369.47 369.47z" fill="#FF7B63" fill-rule="evenodd" stroke="#FEFAF6" stroke-linecap="round" stroke-linejoin="round" stroke-miterlimit="10" stroke-width="22.917"/><path d="m1650.5 1226.8 3.58-6.2 261.25-452.49c30.69 17.719 69.93 7.204 87.65-23.487v0l8.12-24.151c3.08-24.816-8.59-50.213-31.6-63.502l50.56-87.571c35.67-61.793 114.69-82.965 176.48-47.289l193.99 112c61.8 35.676 82.97 114.69 47.29 176.48l-50.56 87.571c-23.01-13.289-50.84-10.697-70.79 4.378l-16.86 19.108v0 1e-3c-17.72 30.69-7.2 69.934 23.49 87.648l-261.25 452.5-3.58 6.2c-35.68 61.8-114.69 82.97-176.49 47.29l-193.99-112c-61.79-35.68-82.97-114.69-47.29-176.49z" fill="#FEFAF6" fill-rule="evenodd" stroke="#FF7B63" stroke-linecap="round" stroke-linejoin="round" stroke-miterlimit="10" stroke-width="68.75"/><path d="m1650.5 1226.8 3.58-6.2 417.77 241.2-3.58 6.2c-35.68 61.8-114.69 82.97-176.49 47.29l-193.99-112c-61.79-35.68-82.97-114.69-47.29-176.49z" fill="#FEFAF6" fill-rule="evenodd" stroke="#FEFAF6" stroke-linecap="round" stroke-linejoin="round" stroke-miterlimit="10" stroke-width="22.917"/><path d="m1979.5 657.01 50.56-87.571c35.67-61.793 114.69-82.965 176.48-47.289l193.99 112c61.8 35.676 82.97 114.69 47.29 176.48l-50.56 87.571c-23.01-13.29-50.84-10.697-70.79 4.377l-16.86 19.109-38.2-22.057 3.44-10.243c1.31-10.524-3.64-21.295-13.4-26.932-9.77-5.636-21.57-4.537-30.03 1.857l-7.15 8.104-44.41-25.637 3.45-10.243c1.31-10.525-3.64-21.296-13.41-26.932-9.76-5.637-21.56-4.537-30.02 1.856l-7.15 8.104-44.41-25.637 3.45-10.243c1.3-10.525-3.65-21.296-13.41-26.932s-21.56-4.537-30.02 1.856l-7.15 8.105-38.21-22.057 8.12-24.151c3.08-24.816-8.59-50.213-31.6-63.502z" fill="#FEFAF6" fill-rule="evenodd" stroke="#FEFAF6" stroke-linecap="round" stroke-linejoin="round" stroke-miterlimit="10" stroke-width="22.917"/><path d="m1654.1 1220.6 261.25-452.49c30.69 17.719 69.93 7.204 87.65-23.487v0l38.21 22.057v0c-7.52 13.017-3.06 29.661 9.96 37.176 13.01 7.515 29.66 3.055 37.17-9.961v-1e-3l44.41 25.638v0c-7.52 13.017-3.06 29.66 9.96 37.175s29.66 3.056 37.18-9.961v0l44.4 25.637v1e-3c-7.51 13.016-3.06 29.66 9.96 37.175s29.66 3.055 37.18-9.961v-1e-3l38.2 22.057v1e-3c-17.72 30.69-7.2 69.934 23.49 87.648l-261.25 452.5z" fill="#FF7B63" fill-rule="evenodd" stroke="#FEFAF6" stroke-linecap="round" stroke-linejoin="round" stroke-miterlimit="10" stroke-width="22.917"/></g></svg>
