<svg width="630" height="500" xmlns="http://www.w3.org/2000/svg" xmlns:xlink="http://www.w3.org/1999/xlink" xml:space="preserve" overflow="hidden"><defs><clipPath id="clip0"><rect x="325" y="110" width="630" height="500"/></clipPath></defs><g clip-path="url(#clip0)" transform="translate(-325 -110)"><path d="M-49.2111 373.435C-68.3833 371.25-84.5348 364.702-96.8975 354.099L-98.8098 352.459-212.328 334.87C-274.763 325.195-327.098 316.968-328.628 316.586-342.129 313.218-351.808 301.225-352.336 287.212-352.583 280.659-333.52-55.9189-332.665-60.1047-329.323-76.4579-312.62-87.9283-296.428-84.9894-295.397-84.8024-254.475-75.6962-205.488-64.7534L-116.423-44.8574-116.904-43.9261C-119.062-39.7534-125.097-38.4664-130.623-41.0003-135.48-43.2273-139.829-42.8636-143.703-39.9066L-145.266-38.714-222.344-55.9863C-282.175-69.3939-299.928-73.2553-301.683-73.2437-307.182-73.2072-311.734-69.5152-312.967-64.0906-313.312-62.5703-316.257-12.129-322.222 94.4225-327.034 180.378-331.015 250.756-331.071 250.819-331.299 251.075-333.38 249.74-336.038 247.628-340.878 243.783-344.837 243.802-348.346 247.685-350.152 249.685-350.395 251.288-349.993 258.561-349.201 272.898-345.31 282.391-337.587 288.826-336.092 290.072-335.669 290.683-335.209 292.254-333.481 298.161-328.895 303.864-323.934 306.274-312.676 311.745-299.202 307.637-294.194 297.207-293.054 294.835-292.696 294.363-292.121 294.484-291.739 294.564-245.854 301.697-190.157 310.336L-88.8876 326.04-85.5044 329.431C-74.687 340.269-57.5741 346.229-37.2701 346.229-16.966 346.229 0.147017 340.269 10.9643 329.431L14.3476 326.04 115.617 310.341C171.315 301.705 217.121 294.576 217.407 294.497 217.772 294.397 218.339 295.204 219.29 297.181 224.293 307.568 237.817 311.76 248.873 306.35 254.284 303.701 258.128 298.976 260.343 292.246 260.795 290.871 261.367 290.006 262.396 289.132 270.509 282.255 274.241 273.304 275.13 258.584 275.594 250.915 275.35 249.67 272.891 247.212 269.801 244.122 265.94 243.933 262.422 246.701 258.973 249.413 256.525 250.961 256.444 250.478 256.402 250.221 252.446 179.839 247.651 94.0748 241.706-12.2658 238.773-62.5699 238.427-64.0906 237.194-69.5151 232.643-73.2071 227.142-73.2438 225.393-73.2555 210.281-69.9837 160.213-58.754L95.5446-44.2492 93.4585-44.4588C84.1887-45.39 76.3664-44.9566 69.5403-43.1339L66.5237-42.3283 66.3521-43.4025C65.8324-46.6547 65.429-49.9405 65.5363-50.0479 65.6921-50.2036 218.946-84.4563 221.73-84.9578 238.121-87.9096 254.765-76.5436 258.124-60.1047 258.979-55.9189 278.044 280.659 277.795 287.212 277.267 301.225 267.589 313.218 254.088 316.586 252.557 316.968 200.249 325.193 137.846 334.863L24.3861 352.447 20.5034 355.583C9.1675 364.741-5.47176 370.707-22.4935 373.107-28.0898 373.895-43.5092 374.084-49.2111 373.435ZM-45.2667 338.281C-54.9441 336.897-59.6788 335.754-65.3508 333.432-73.5694 330.065-80.849 324.623-83.8594 319.591-84.1451 319.114-102.711 316.139-187.759 302.938L-291.311 286.865-291.45 284.43C-291.526 283.092-291.681 281.178-291.793 280.175L-291.997 278.354-291.016 278.546C-290.476 278.651-242.394 286.132-184.166 295.169L-78.2965 311.603-78.0754 307.231C-77.9538 304.826-77.8365 302.491-77.8147 302.043L-77.775 301.228-76.1236 302.197C-58.3377 312.637-35.8289 312.579-18.3383 302.047-13.7623 299.291-10.3293 296.45-3.68497 289.916L2.78088 283.559 3.00633 287.472C3.13034 289.623 3.25098 293.888 3.27444 296.947 3.29791 300.007 3.41595 304.553 3.53678 307.048L3.75647 311.587 110.321 295.027C168.932 285.919 216.92 278.487 216.962 278.512 217.164 278.631 216.224 287.039 216.009 287.039 215.872 287.039 169.39 294.235 112.714 303.03 28.6127 316.081 9.60316 319.127 9.31939 319.596 4.33042 327.858-8.38187 334.745-23.7104 337.491-27.7212 338.21-42.081 338.736-45.2667 338.281ZM-54.6195 301.788C-62.9165 300.499-70.4871 297.274-77.0797 292.223-78.5139 291.124-89.3751 280.523-101.216 268.667L-122.744 247.109-121.555 246.927C-120.901 246.825-118.807 246.652-116.901 246.539-100.773 245.589-84.0284 235.562-74.7957 221.327-73.8655 219.892-73.0538 218.648-72.9919 218.56-72.93 218.473-59.5866 231.692-43.34 247.938L-13.8008 277.476 47.5958 216.08 108.993 154.682 107.905 152.915C102.866 144.727 102.808 134.037 107.755 125.597L108.975 123.514 106.113 120.637 103.251 117.76 102.338 118.232C96.3235 121.342 87.1993 117.556 84.5469 110.849 83.503 108.21 83.4231 103.719 84.3761 101.248L85.0289 99.5563 81.2132 95.7406 77.3976 91.9251 75.693 92.5495C69.8352 94.6953 62.4502 91.9561 59.3754 86.4969 57.4458 83.0711 57.1192 77.5156 58.6713 74.5237L59.129 73.6415 55.259 69.7905 51.389 65.9395 49.3029 66.647C38.9643 70.1533 28.8416 59.8853 32.3605 49.4617L33.0148 47.5237 30.1525 44.6762 27.2902 41.8287 26.3015 42.5264C24.9062 43.5109 22.1315 44.8699 20.1461 45.5411L18.4562 46.1125 16.9765 44.7485C16.1627 43.9984 14.8556 42.9601 14.0718 42.4415 12.7922 41.5947 10.628 39.2262 10.9358 39.0094 11.0029 38.9621 12.3255 38.7469 13.8749 38.5312 19.926 37.6889 23.2096 35.5369 26.7234 30.1111L29.1372 26.3839 31.7792 26.1929C35.0603 25.9557 37.8688 24.6712 39.7304 22.5562 41.0797 21.0234 57.3998-7.00005 60.5453-13.1853 63.4003-18.7992 66.1655-28.2813 66.1655-32.4579 66.1655-34.0924 66.0725-34.0347 71.033-35.4799 85.0465-39.5629 100.429-36.8376 112.884-28.0655 116.601-25.4479 175.701 33.4996 178.521 37.4025 191.611 55.5145 191.496 78.3994 178.225 96.4221 175.786 99.7359 149.628 126.156 148.042 126.909 146.325 127.723 145.339 127.578 143.476 126.234 137.351 121.817 135.5 121.093 130.313 121.081 126.05 121.072 124.389 121.659 119.882 124.77 114.672 128.367 112.359 132.773 112.359 139.1 112.359 143.749 114.477 149.293 117.064 151.417 118.89 152.916 119.146 155.558 117.66 157.562 115.635 160.291-14.6109 290.02-17.4521 292.137-28.4999 300.369-41.7026 303.796-54.6195 301.788ZM-318.202 300.336C-323.676 298.394-327.203 294.124-328.215 288.213L-328.603 285.951-330.701 284.439C-338.299 278.97-341.751 271.031-342.264 257.856-342.443 253.224-342.403 252.501-341.983 252.837-335.931 257.689-333.867 258.622-325.456 260.308-313.8 262.644-308.626 265.134-304.203 270.535-297.479 278.747-297.604 292.601-304.45 298.019-307.794 300.664-314.223 301.748-318.202 300.336ZM233.904 300.288C227.327 297.876 224.361 293.058 224.361 284.786 224.361 278.617 226.648 273.183 231.1 268.769 235.607 264.3 240.347 262.253 250.785 260.263 258.634 258.766 261.182 257.606 267.095 252.84 267.811 252.262 267.35 262.475 266.459 266.923 264.869 274.862 260.677 281.516 255.011 285.093L253.723 285.906 253.327 288.216C252.444 293.367 249.623 297.325 245.318 299.454L242.678 300.759 239.17 300.846C236.452 300.914 235.264 300.788 233.904 300.288ZM-317.155 254.182C-317.919 253.934-319.601 253.534-320.892 253.293-322.898 252.917-323.239 252.749-323.243 252.128-323.249 250.74-305.859-58.7451-305.649-60.9745-305.377-63.8517-303.968-65.5132-301.804-65.5083-300.522-65.5055-150.187-31.9958-149.823-31.6319-149.481-31.291-153.785-24.3097-154.289-24.3844-154.563-24.4247-177.551-29.5522-205.374-35.7791-233.198-42.0059-256.222-47.0577-256.539-47.0054-257.535-46.8415-299.918-13.5881-300.089-12.8375-300.175-12.455-303.545 46.9987-307.575 119.282-315.007 252.549-315.135 254.732-315.537 254.668-315.662 254.648-316.39 254.429-317.155 254.182ZM240.574 253.053C240.468 252.145 237.05 191.902 232.979 119.18L225.578-13.0404 203.728-30.1086 181.877-47.1767 150.454-40.1405 119.031-33.1043 117.215-34.4445C116.217-35.1816 114.007-36.59 112.305-37.5743L109.21-39.364 111.765-39.9453C147.292-48.028 226.275-65.5114 227.261-65.5114 229.427-65.5114 230.836-63.8517 231.112-60.9745 231.468-57.2536 248.732 251.344 248.624 252.059 248.544 252.597 247.857 252.87 244.961 253.519 243 253.957 241.254 254.404 241.082 254.51 240.908 254.618 240.681 253.961 240.574 253.053ZM-130.97 238.397C-139.605 236.719-139.502 236.77-180.85 212.899-215.245 193.039-217.729 191.538-221.769 188.176-238.113 174.574-243.284 148.78-233.531 129.515-231.21 124.931-140.099-32.4824-139.235-33.4008-137.848-34.8754-136.513-35.0963-134.496-34.1849-127.98-31.2408-122.529-31.0977-117.275-33.7328-112.444-36.1551-110.209-38.8791-108.322-44.641L-106.895-48.9965-107.299-52.0899C-108.013-57.5662-110.55-61.7254-115.297-65.2011-119.585-68.3398-119.766-67.7195-109.197-86.0471-104.296-94.5443-99.4651-102.748-98.4606-104.278-85.1803-124.503-59.0568-131.924-37.0072-121.734-34.7409-120.687 31.2922-82.7397 35.9171-79.8268 56.7134-66.7289 64.5671-40.1357 54.24-17.7842 53.0411-15.1891 36.7273 13.3414 34.7744 16.2585 33.0232 18.8746 31.6343 19.1927 28.365 17.7269 22.2847 15.0008 15.8856 15.1695 10.8459 18.189 8.84467 19.388 4.14913 24.6656 3.28039 26.6923-0.147622 34.6895 2.55975 43.7172 9.97242 49.0067 12.365 50.7141 13.1842 52.0644 12.8478 53.7467 12.6428 54.7714-78.5982 213.167-81.4361 217.424-88.1533 227.502-98.2111 234.547-110.4 237.711L-114.456 238.765-121.062 238.901C-126.475 239.014-128.264 238.924-130.97 238.397ZM-40.4955 130.408C-16.881 89.4854 2.62819 55.6442 2.85832 55.2051L3.27674 54.4066 0.63522 51.5986C-4.02484 46.6449-6.28044 40.8203-6.27588 33.7519-6.27363 30.2597-6.09249 29.0952-4.91846 25.0248-4.73612 24.3926-5.17864 24.0279-8.21012 22.3115L-11.7124 20.3285-12.8443 21.1917C-15.186 22.9778-17.2073 23.6021-20.762 23.6368L-24.0718 23.6691-26.4773 22.4851C-31.3942 20.065-34.052 15.9204-34.1876 10.4616L-34.2654 7.32803-38.8333 4.66884-43.4011 2.00967-45.1508 3.16195C-54.4745 9.30227-67.2887 1.67384-66.1061-9.31299L-65.9139-11.0991-70.6795-13.8055-75.4451-16.5119-76.1755-15.8689C-79.5283-12.9171-85.5195-12.1645-89.944-14.1393-94.8184-16.315-97.6688-20.6714-97.8287-26.1898L-97.9234-29.4593-101.322-31.4511-104.72-33.4428-105.856-32.1186C-111.608-25.4076-122.764-22.1222-131.823-24.471-134.04-25.0457-134.669-25.1009-134.995-24.7496-135.786-23.8979-221.406 124.731-221.296 125.061-221.205 125.334-83.6047 204.998-83.4714 204.855-83.4492 204.831-64.1099 171.33-40.4955 130.408Z" fill="#FF7B63" transform="matrix(1 0 0 1.00007 677.338 236.288)"/></g></svg>