<?xml version="1.0" encoding="UTF-8" standalone="no"?>
<!-- Created with Inkscape (http://www.inkscape.org/) -->

<svg
   width="20"
   height="20"
   viewBox="0 0 5.2916668 5.2916665"
   version="1.1"
   id="svg1"
   inkscape:export-filename="logo-black.svg"
   inkscape:export-xdpi="96"
   inkscape:export-ydpi="96"
   xmlns:inkscape="http://www.inkscape.org/namespaces/inkscape"
   xmlns:sodipodi="http://sodipodi.sourceforge.net/DTD/sodipodi-0.dtd"
   xmlns="http://www.w3.org/2000/svg"
   xmlns:svg="http://www.w3.org/2000/svg">
  <sodipodi:namedview
     id="namedview1"
     pagecolor="#ffffff"
     bordercolor="#999999"
     borderopacity="1"
     inkscape:showpageshadow="2"
     inkscape:pageopacity="0"
     inkscape:pagecheckerboard="true"
     inkscape:deskcolor="#d1d1d1"
     inkscape:document-units="px" />
  <defs
     id="defs1" />
  <g
     inkscape:label="Layer 1"
     inkscape:groupmode="layer"
     id="layer1"><style
   id="style1">
.MsftOfcThm_Text1_Fill_v2 {
 fill:#000000; 
}
</style>

<g
   id="g1"
   transform="matrix(0.01103514,0,0,0.01103514,2.9588174,1.6064259)"
   style="fill:#000000;fill-opacity:1">
  <path
     d="m -37.4492,284.181 c -14.5899,-1.663 -26.8811,-6.646 -36.289,-14.715 l -1.4552,-1.248 -86.3866,-13.385 c -47.512,-7.362 -87.339,-13.623 -88.503,-13.914 -10.274,-2.563 -17.64,-11.689 -18.042,-22.353 -0.188,-4.987 14.319,-261.1198 14.97,-264.3052 2.543,-12.4446 15.254,-21.1735 27.576,-18.937 0.784,0.1423 31.926,7.072 69.204,15.3994 l 67.7783,15.1407 -0.3665,0.7087 c -1.6421,3.1754 -6.2343,4.1548 -10.4396,2.2265 -3.6962,-1.6947 -7.0062,-1.4179 -9.9542,0.8323 l -1.189,0.9076 -58.656,-13.1441 c -45.531,-10.2031 -59.041,-13.1416 -60.376,-13.1327 -4.185,0.0277 -7.649,2.8373 -8.587,6.9654 -0.263,1.1569 -2.504,39.54234 -7.043,120.6271 -3.662,65.4113 -6.692,118.9683 -6.734,119.0163 -0.174,0.195 -1.757,-0.821 -3.78,-2.428 -3.683,-2.926 -6.696,-2.912 -9.366,0.043 -1.375,1.522 -1.56,2.742 -1.254,8.277 0.603,10.91 3.564,18.134 9.441,23.031 1.138,0.948 1.46,1.413 1.81,2.609 1.315,4.495 4.805,8.835 8.58,10.669 8.567,4.163 18.821,1.037 22.632,-6.9 0.867,-1.805 1.14,-2.164 1.577,-2.072 0.291,0.061 35.209,5.489 77.594,12.063 l 77.0653,11.951 2.5746,2.58 c 8.2319,8.248 21.2547,12.783 36.7059,12.783 15.4512,0 28.474079,-4.535 36.70591,-12.783 l 2.57469,-2.58 77.0649,-11.947 c 42.3857,-6.572 77.2437,-11.997 77.4617,-12.057 0.278,-0.076 0.709,0.538 1.433,2.042 3.807,7.905 14.099,11.095 22.512,6.978 4.118,-2.016 7.043,-5.612 8.729,-10.733 0.344,-1.047 0.779,-1.705 1.562,-2.37 6.174,-5.233 9.014,-12.045 9.691,-23.247 0.353,-5.836 0.167,-6.783 -1.704,-8.654 -2.352,-2.351 -5.29,-2.495 -7.967,-0.389 -2.625,2.064 -4.488,3.242 -4.549,2.875 -0.032,-0.196 -3.043,-53.756 -6.692,-119.0219 -4.524,-80.92424 -6.756,-119.2053 -7.019,-120.3625 -0.938,-4.128 -4.402,-6.9376 -8.588,-6.9655 -1.331,-0.0089 -12.831,2.4809 -50.932,11.0266 l -49.2124,11.038 -1.5875,-0.1595 c -7.0542,-0.7086 -13.0069,-0.3788 -18.2015,1.0083 l -2.2956,0.613 -0.1306,-0.8174 c -0.3955,-2.4749 -0.7025,-4.9754 -0.6208,-5.0571 0.1185,-0.1185 116.7434,-26.1845 118.8624,-26.5662 12.473,-2.2463 25.139,6.4032 27.695,18.913 0.651,3.1854 15.159,259.3182 14.97,264.3052 -0.402,10.664 -7.767,19.79 -18.041,22.353 -1.165,0.291 -40.971,6.55 -88.459,13.909 l -86.3424,13.381 -2.9547,2.387 c -8.62651,6.969 -19.76686,11.509 -32.7203,13.335 -4.2587,0.6 -15.9927,0.744 -20.3318,0.25 z m 3.0016,-26.752 c -7.3644,-1.053 -10.9675,-1.923 -15.2838,-3.69 -6.2543,-2.562 -11.794,-6.704 -14.0849,-10.533 -0.2174,-0.363 -14.3459,-2.627 -79.0667,-12.673 l -78.802,-12.231 -0.106,-1.853 c -0.058,-1.018 -0.176,-2.475 -0.261,-3.238 l -0.155,-1.386 0.746,0.146 c 0.411,0.08 37.001,5.773 81.312,12.65 l 80.566,12.506 0.1683,-3.327 c 0.0925,-1.83 0.1818,-3.607 0.1984,-3.948 l 0.0302,-0.62 1.2567,0.737 c 13.5349,7.945 30.6639,7.901 43.9741,-0.114 3.4823,-2.097 6.09481,-4.259 11.15107,-9.231 l 4.92046,-4.838 0.17156,2.978 c 0.09437,1.637 0.18618,4.882 0.20403,7.21 0.01786,2.329 0.10769,5.788 0.19964,7.687 l 0.16718,3.454 81.09476,-12.602 c 44.6026,-6.931 81.1206,-12.587 81.1526,-12.568 0.154,0.091 -0.561,6.489 -0.725,6.489 -0.104,0 -35.477,5.476 -78.6066,12.169 -64.0004,9.932 -78.46648,12.25 -78.68242,12.607 -3.79657,6.287 -13.47051,11.528 -25.13538,13.618 -3.0522,0.547 -13.9799,0.947 -16.4042,0.601 z m -7.1174,-27.771 c -6.3139,-0.981 -12.0751,-3.435 -17.092,-7.279 -1.0914,-0.836 -9.3567,-8.903 -18.3673,-17.926 l -16.3829,-16.405 0.9048,-0.139 c 0.4976,-0.077 2.0914,-0.209 3.5417,-0.295 12.2732,-0.723 25.0158,-8.353 32.0418,-19.186 0.7079,-1.092 1.3256,-2.039 1.3727,-2.106 0.0471,-0.066 10.2013,9.994 22.5648,22.357 l 22.4791,22.478 46.7223,-46.722 46.7224,-46.723 -0.8279,-1.345 c -3.8342,-6.231 -3.8788,-14.366 -0.1141,-20.7891 l 0.929,-1.585 -2.1781,-2.1895 -2.1781,-2.1894 -0.6946,0.3592 c -4.5772,2.367 -11.5207,-0.5141 -13.5391,-5.6178 -0.7944,-2.0087 -0.8552,-5.4261 -0.13,-7.3062 l 0.4968,-1.2877 -2.9037,-2.9037 -2.9037,-2.9036 -1.2972,0.4752 c -4.4577,1.6329 -10.0776,-0.4516 -12.4175,-4.606 -1.4684,-2.607 -1.717,-6.8347 -0.5358,-9.1115 l 0.3483,-0.6713 -2.9451,-2.9306 -2.945,-2.9306 -1.5875,0.5384 C 29.6515,53.3861 21.9482,45.5722 24.6261,37.6399 l 0.4979,-1.4748 -2.1782,-2.1669 -2.1782,-2.1669 -0.7524,0.5309 c -1.0618,0.7492 -3.1733,1.7834 -4.6842,2.2942 l -1.286,0.4348 -1.126,-1.038 C 12.2997,33.4824 11.305,32.6923 10.7085,32.2976 9.73475,31.6532 8.08782,29.8508 8.32203,29.6858 c 0.05108,-0.036 1.05757,-0.1997 2.23667,-0.3639 4.6048,-0.641 7.1036,-2.2786 9.7776,-6.4076 l 1.8369,-2.8364 2.0105,-0.1453 c 2.4969,-0.1805 4.6341,-1.158 6.0508,-2.7675 1.0268,-1.1665 13.4463,-22.49208 15.84,-27.199 2.1726,-4.2721 4.2769,-11.4879 4.2769,-14.6663 0,-1.2438 -0.0708,-1.1999 3.7041,-2.2997 10.6642,-3.1071 22.3702,-1.0332 31.8484,5.6423 2.8284,1.992 47.8031,46.8505 49.9491,49.8206 9.961,13.7831 9.874,31.1983 -0.225,44.9134 -1.856,2.5218 -21.762,22.6273 -22.969,23.2001 -1.307,0.62 -2.057,0.5092 -3.475,-0.5135 -4.661,-3.361 -6.07,-3.9125 -10.017,-3.9213 -3.2441,-0.0072 -4.5082,0.4398 -7.9375,2.8075 -3.9647,2.7373 -5.725,6.0898 -5.725,10.9048 0,3.538 1.6113,7.757 3.5801,9.373 1.3897,1.141 1.5847,3.151 0.4535,4.676 -1.5407,2.077 -100.6569,100.8 -102.819,102.411 -8.4073,6.264 -18.4544,8.872 -28.2841,7.344 z m -200.584,-1.105 c -4.166,-1.478 -6.85,-4.727 -7.62,-9.225 l -0.295,-1.722 -1.597,-1.15 c -5.782,-4.162 -8.409,-10.204 -8.799,-20.23 -0.136,-3.525 -0.106,-4.075 0.214,-3.819 4.605,3.692 6.176,4.402 12.577,5.685 8.87,1.778 12.807,3.673 16.173,7.783 5.117,6.249 5.022,16.792 -0.188,20.915 -2.545,2.013 -7.437,2.838 -10.465,1.763 z m 420.148,-0.036 c -5.005,-1.836 -7.262,-5.502 -7.262,-11.797 0,-4.695 1.74,-8.83 5.128,-12.189 3.43,-3.401 7.037,-4.959 14.98,-6.473 5.973,-1.139 7.912,-2.022 12.412,-5.649 0.545,-0.44 0.194,7.332 -0.484,10.717 -1.21,6.042 -4.4,11.105 -8.712,13.827 l -0.98,0.619 -0.301,1.758 c -0.672,3.92 -2.819,6.932 -6.095,8.552 l -2.009,0.993 -2.67,0.066 c -2.068,0.052 -2.972,-0.044 -4.007,-0.424 z M -241.352,193.43 c -0.582,-0.188 -1.862,-0.493 -2.844,-0.676 -1.527,-0.286 -1.786,-0.414 -1.789,-0.887 -0.005,-1.056 13.229,-236.5715 13.389,-238.2681 0.207,-2.1895 1.279,-3.4539 2.926,-3.4502 0.975,0.0022 115.379,25.5028 115.656,25.7797 0.26,0.2594 -3.015,5.5721 -3.399,5.5153 -0.208,-0.0307 -17.702,-3.9327 -38.875,-8.6713 -21.174,-4.7385 -38.695,-8.5829 -38.936,-8.5431 -0.758,0.1247 -33.011,25.4303 -33.141,26.00148 -0.066,0.29104 -2.63,45.53482 -5.697,100.54172 -5.656,101.4155 -5.753,103.0765 -6.059,103.0275 -0.095,-0.015 -0.649,-0.182 -1.231,-0.37 z m 424.427,-0.859 c -0.081,-0.691 -2.682,-46.535 -5.78,-101.8758 l -5.632,-100.61886 -16.628,-12.98874 -16.628,-12.9887 -23.913,5.3545 -23.9121,5.3545 -1.382,-1.0199 c -0.7601,-0.5609 -2.4417,-1.6327 -3.737,-2.3817 l -2.3551,-1.362 1.9442,-0.4423 c 27.036,-6.1509 87.141,-19.4556 87.892,-19.4556 1.648,0 2.72,1.263 2.93,3.4525 0.271,2.8316 13.409,237.6721 13.327,238.2161 -0.061,0.409 -0.584,0.617 -2.788,1.111 -1.492,0.333 -2.821,0.673 -2.952,0.754 -0.132,0.082 -0.305,-0.418 -0.386,-1.109 z M -99.6674,181.418 c -6.5706,-1.277 -6.4926,-1.238 -37.9576,-19.404 -26.175,-15.113 -28.065,-16.255 -31.139,-18.814 -12.438,-10.351 -16.373,-29.98 -8.951,-44.6401 1.766,-3.4887 71.101,-123.2787 71.758,-123.9776 1.056,-1.1222 2.072,-1.2903 3.607,-0.5967 4.9582,2.2404 9.1062,2.3493 13.1049,0.344 3.6758,-1.8433 5.3772,-3.9163 6.8131,-8.301 l 1.0855,-3.3145 -0.3069,-2.3541 c -0.5433,-4.1674 -2.4742,-7.3325 -6.0869,-9.9775 -3.2625,-2.3885 -3.4006,-1.9165 4.6426,-15.8636 3.7291,-6.4663 7.4056,-12.7094 8.17,-13.8736 10.1062,-15.3912 29.986,-21.0383 46.7655,-13.284 1.7247,0.797 51.9753,29.6745 55.4948,31.8912 15.8258,9.9674 21.8024,30.2046 13.9436,47.2139 -0.9124,1.9748 -13.327,23.6863 -14.8132,25.9062 -1.3326,1.9908 -2.3896,2.2329 -4.8775,1.1174 -4.627,-2.0745 -9.4967,-1.9461 -13.33187,0.3517 -1.52291,0.9124 -5.09618,4.9286 -5.75728,6.4709 -2.608689,6.0858 -0.5484,12.9558 5.09258,16.9811 1.82076,1.2993 2.44417,2.3269 2.18811,3.6071 -0.15596,0.7798 -69.58964,121.3172 -71.74924,124.5572 -5.1117,7.669 -12.7656,13.03 -22.041,15.438 l -3.0865,0.802 -5.0271,0.104 c -4.1195,0.086 -5.4808,0.017 -7.5406,-0.384 z M -30.8167,99.2391 C -12.8463,68.0976 2.00003,42.3448 2.17516,42.0106 L 2.49357,41.403 0.483397,39.2661 C -3.06287,35.4964 -4.77936,31.0639 -4.77589,25.6849 c 0.00171,-2.6575 0.13956,-3.5437 1.03298,-6.6412 0.13876,-0.4811 -0.19799,-0.7587 -2.50492,-2.0648 l -2.66523,-1.5091 -0.86131,0.6569 c -1.78203,1.3592 -3.32023,1.8343 -6.02533,1.8607 l -2.5187,0.0246 -1.8306,-0.901 c -3.7417,-1.8417 -5.7643,-4.9957 -5.8675,-9.14978 l -0.0592,-2.38465 -3.4761,-2.02362 -3.4761,-2.02361 -1.3315,0.87688 c -7.0952,4.67273 -16.8467,-1.13244 -15.9468,-9.49333 l 0.1463,-1.35924 -3.6266,-2.05955 -3.6266,-2.0595 -0.5558,0.4893 c -2.5515,2.24633 -7.1107,2.81905 -10.4777,1.3162 -3.7094,-1.6557 -5.8785,-4.9709 -6.0002,-9.1703 l -0.0721,-2.4881 -2.5862,-1.5157 -2.5863,-1.5157 -0.8638,1.0077 c -4.3777,5.107 -12.8674,7.6072 -19.7608,5.8198 -1.687,-0.4374 -2.166,-0.4794 -2.414,-0.212 -0.602,0.6481 -65.758,113.7538 -65.674,114.0045 0.069,0.2075 104.7815,60.8317 104.883,60.7227 0.0169,-0.018 14.7339,-25.512 32.7043,-56.6539 z"
     id="path2"
     class="MsftOfcThm_Text1_Fill_v2"
     style="fill:#000000;fill-opacity:1" />
</g>
</g>
</svg>
