<svg width="1628" height="1627" xmlns="http://www.w3.org/2000/svg" xmlns:xlink="http://www.w3.org/1999/xlink" xml:space="preserve" overflow="hidden"><defs><clipPath id="clip0"><rect x="1386" y="424" width="1628" height="1627"/></clipPath></defs><g clip-path="url(#clip0)" transform="translate(-1386 -424)"><path d="M1386 1237.5C1386 788.216 1750.44 424 2200 424 2649.56 424 3014 788.216 3014 1237.5 3014 1686.78 2649.56 2051 2200 2051 1750.44 2051 1386 1686.78 1386 1237.5ZM1519.02 1237.5C1519.02 1613.32 1823.91 1917.98 2200 1917.98 2576.09 1917.98 2880.98 1613.32 2880.98 1237.5 2880.98 861.683 2576.09 557.023 2200 557.023 1823.91 557.023 1519.02 861.683 1519.02 1237.5Z" fill="#FF7B63" fill-rule="evenodd"/><path d="M2165.11 1031.51 2181.4 1035.1 2166.31 1037.98ZM1771.37 945.119 2029.44 1001.79 1876.15 1225.37 1860.83 1247.66C1844.54 1271.5 1850.53 1303.97 1874.24 1320.27L2007.88 1412.77C2019.74 1420.92 2033.75 1423.55 2046.8 1421.04L2065.12 1409.17 2131.1 1489.57C2140.2 1500.72 2153.02 1507.07 2166.19 1508.38L2194.09 1499.76 2194.09 1578.96 2116.49 1559.43 2116.49 1577.28 2121.88 1604.12 1715.09 1502.03Z" stroke="#FF7B63" stroke-width="54.8777" stroke-linecap="round" stroke-linejoin="round" stroke-miterlimit="10" fill="none" fill-rule="evenodd"/><path d="M413.206 252.116 410.419 222.78 381.674 225.62 384.46 254.96ZM459.804 291.28 457.017 261.939 428.271 264.783 431.055 294.121ZM506.401 330.438 503.615 301.1 474.87 303.946 477.654 333.283ZM565.629 445.14 537.232 439.784 531.986 468.776 560.387 474.132ZM609.856 287.183 568.504 338.452 556.718 332.038 521.412 343.057 517.598 380.54 526.029 391.113 503.458 419.093 526.164 423.378 534.745 375.936 595.55 333.22 600.213 332.206ZM659.014 57.6795 102.134 0.0101041 0.0137197 416.961 26.8907 411.423 44.6664 411.423 25.1736 491.01 104.351 491.01 107.465 480.583 124.74 459.169 124.736 459.166 319.571 217.61 366.607 212.955 362.05 164.947 408.962 106.784C427.291 84.0569 460.198 80.8019 482.459 99.5085L608.3 205.263 621.843 231.226Z" stroke="#FF7B63" stroke-width="54.8777" stroke-linecap="round" stroke-linejoin="round" stroke-miterlimit="10" fill="none" fill-rule="evenodd" transform="matrix(-1.83697e-16 -1 -1 1.83697e-16 2685.5 1604.5)"/><path d="M2162.6 1014.83 2193.25 1021.66 2194.09 1026.45 2194.09 1029.09 2166.19 1034.36ZM1792.49 933.119 2036.28 986.916 1875.23 1223.43 1859.91 1245.96C1843.5 1269.92 1849.49 1302.75 1873.32 1319.16L2007.42 1412.38C2019.28 1420.64 2033.28 1423.28 2046.46 1420.88L2064.78 1408.78 2130.87 1489.9C2140.09 1501.16 2152.78 1507.51 2166.07 1508.83L2194.09 1500.2 2194.09 1580.12 1739.09 1465.22Z" stroke="#FF7B63" stroke-width="54.8777" stroke-linecap="round" stroke-linejoin="round" stroke-miterlimit="10" fill="none" fill-rule="evenodd"/><path d="M391.469 227.111 388.658 197.649 359.659 200.502 362.471 229.967ZM438.478 266.438 435.667 236.973 406.67 239.83 409.477 269.291ZM485.489 305.761 482.677 276.3 453.679 279.158 456.486 308.618ZM545.238 420.947 516.591 415.568 511.298 444.684 539.949 450.061ZM553.647 467.01 551.111 466.537 551.025 467.01ZM647.014 54.8585 114.916 0.00974223 0.0133583 467.01 79.89 467.01 83.0314 456.54 100.458 435.036 100.455 435.032 297.009 192.458 344.46 187.783 339.862 139.573 387.188 81.1643C405.68 58.3415 438.877 55.0735 461.334 73.8591L588.285 180.058C599.512 189.451 605.935 202.582 607.233 216.216 608.534 229.851 604.715 243.987 595.468 255.398L548.139 313.811 536.248 307.368 500.631 318.434 496.784 356.074 505.289 366.692 482.52 394.79 505.425 399.092 514.081 351.451 575.423 308.556 593.255 304.694Z" stroke="#FF7B63" stroke-width="54.8777" stroke-linecap="round" stroke-linejoin="round" stroke-miterlimit="10" fill="none" fill-rule="evenodd" transform="matrix(-1.83697e-16 -1 -1 1.83697e-16 2661.5 1580.5)"/><path d="M2113.82 1340.12 2224.09 1473.79 2202.9 1491.13C2180.39 1509.54 2147.22 1506.43 2128.78 1483.96L2062.09 1403.01 2077.3 1393.21 2077.3 1393.21 2077.3 1393.21 2092.86 1370.61 2092.86 1370.61Z" stroke="#FF7B63" stroke-width="54.8777" stroke-linecap="round" stroke-linejoin="round" stroke-miterlimit="10" fill="none" fill-rule="evenodd"/><path d="M2343.75 1026.37 2401.08 979.156C2423.41 960.627 2456.5 963.855 2475.01 986.328L2579.16 1112.91C2597.55 1135.27 2594.32 1168.38 2571.99 1186.9L2514.66 1234.12C2502.84 1219.66 2481.46 1217.62 2467.01 1229.46L2454.82 1214.64C2463.66 1207.34 2464.98 1194.32 2457.69 1185.47 2450.41 1176.5 2437.39 1175.31 2428.43 1182.6L2416.25 1167.78C2425.09 1160.49 2426.4 1147.34 2419.11 1138.49 2411.83 1129.65 2398.81 1128.45 2389.85 1135.74L2377.67 1120.92C2386.51 1113.63 2387.82 1100.48 2380.54 1091.64 2373.25 1082.79 2360.23 1081.48 2351.28 1088.77L2339.09 1073.94C2349.96 1065.1 2353.78 1050.88 2350.08 1038.2L2343.75 1026.37Z" stroke="#FF7B63" stroke-width="54.8777" stroke-linecap="round" stroke-linejoin="round" stroke-miterlimit="10" fill="none" fill-rule="evenodd"/><path d="M2291.37 1069.12 2301.78 1077.63C2313.5 1083.74 2328.21 1082.66 2338.98 1073.79L2351.18 1088.66C2342.33 1095.97 2341.13 1109.03 2348.43 1117.9 2355.72 1126.89 2368.76 1128.09 2377.61 1120.78L2389.82 1135.64C2380.96 1142.95 2379.77 1156.14 2387.07 1165 2394.36 1173.87 2407.4 1175.07 2416.25 1167.76L2428.45 1182.62C2419.6 1189.94 2418.41 1203.12 2425.7 1211.99 2433 1220.86 2446.04 1222.18 2454.89 1214.87L2467.09 1229.73C2452.74 1241.59 2450.58 1263.05 2462.55 1277.43L2224.14 1474.12 2114.09 1340.12 2268.16 1115.86 2263.74 1091.89Z" stroke="#FF7B63" stroke-width="54.8777" stroke-linecap="round" stroke-linejoin="round" stroke-miterlimit="10" fill="none" fill-rule="evenodd"/><path d="M1855.34 1239.83 1870.91 1217.12 2093.09 1370.55 2077.52 1393.26C2060.99 1417.3 2028.29 1423.3 2004.34 1406.84L1868.87 1313.36C1844.92 1296.78 1838.93 1263.86 1855.34 1239.83Z" stroke="#FF7B63" stroke-width="54.8777" stroke-linecap="round" stroke-linejoin="round" stroke-miterlimit="10" fill="none" fill-rule="evenodd"/><path d="M2084.09 907.293 2126.31 845.918C2142.86 821.944 2175.72 815.951 2199.7 832.373L2335.23 925.753C2359.21 942.175 2365.33 975.02 2348.78 998.994L2306.56 1060.37C2291.09 1049.7 2269.98 1053.66 2259.31 1069.12L2243.48 1058.09C2249.96 1048.62 2247.56 1035.68 2238.08 1029.2 2228.61 1022.61 2215.66 1025.01 2209.06 1034.48L2193.23 1023.57C2199.7 1014.1 2197.31 1001.15 2187.83 994.679 2178.36 988.086 2165.4 990.484 2158.93 999.954L2142.98 989.045C2149.57 979.575 2147.17 966.63 2137.7 960.156 2128.23 953.563 2115.27 955.961 2108.68 965.431L2092.85 954.522C2100.76 942.895 2100.64 928.15 2093.45 917.003L2084.09 907.293Z" stroke="#FF7B63" stroke-width="54.8777" stroke-linecap="round" stroke-linejoin="round" stroke-miterlimit="10" fill="none" fill-rule="evenodd"/><path d="M1871.09 1217.37 2046.14 962.858 2058.46 968.126C2071.51 970.76 2085.27 965.731 2093.28 954.119L2109.08 965.013C2102.61 974.47 2105.01 987.399 2114.46 993.983 2123.91 1000.45 2136.83 998.054 2143.3 988.596L2159.21 999.491C2152.63 1008.95 2155.02 1021.88 2164.47 1028.46 2174.05 1034.92 2186.97 1032.53 2193.43 1023.07L2209.22 1033.97C2202.76 1043.42 2205.16 1056.47 2214.61 1062.94 2224.06 1069.4 2236.98 1067.01 2243.56 1057.55L2259.36 1068.45C2248.71 1083.89 2252.66 1105.08 2268.09 1115.61L2093.04 1370.12 1871.09 1217.37Z" stroke="#FF7B63" stroke-width="54.8777" stroke-linecap="round" stroke-linejoin="round" stroke-miterlimit="10" fill="none" fill-rule="evenodd"/><path d="M2122.09 1556.12 2200.09 1575.68 2278.09 1556.12 2278.09 1574C2278.09 1617.08 2243.17 1652.12 2200.09 1652.12 2157.01 1652.12 2122.09 1617.08 2122.09 1574Z" stroke="#FF7B63" stroke-width="54.8777" stroke-linecap="round" stroke-linejoin="round" stroke-miterlimit="10" fill="none" fill-rule="evenodd"/></g></svg>