<svg width="3514" height="788" xmlns="http://www.w3.org/2000/svg" xmlns:xlink="http://www.w3.org/1999/xlink" xml:space="preserve" overflow="hidden"><defs><clipPath id="clip0"><rect x="443" y="3340" width="3514" height="788"/></clipPath></defs><g clip-path="url(#clip0)" transform="translate(-443 -3340)"><rect x="443" y="3340" width="3514" height="788" fill="#F5F5F1" fill-opacity="0"/><path d="M3365.09 3406.5 3356.51 3503.73 3513.86 3443.68 3528.16 3503.73 3739.87 3460.83 3642.6 3620.97 3728.42 3661.01 3639.74 3758.24 3788.5 3995.59 3568.21 3952.69 3573.94 4004.17 3473.81 3958.41 3445.2 4035.62 3230.63 3932.68 3219.19 4004.17 3070.42 3944.11 3041.82 4007.03 2993.18 3961.27 2907.35 4041.34 2718.54 3964.13 2652.74 4029.9 2561.19 3961.27 2492.53 4049.92 2349.49 3975.57 2309.43 4058.5 2197.86 3987.01 2083.43 4052.78 2049.1 3978.43 1906.05 4047.06 1834.53 3958.41 1742.98 4027.04 1682.91 3961.27 1479.78 4038.48 1408.26 3964.13 1348.19 4012.75 1319.58 3958.41 1167.95 4009.89 1147.92 3944.11 947.664 4035.62 916.195 3966.99 821.787 4007.03 813.204 3964.13 601.5 3998.45 747.404 3766.82 652.996 3666.73 744.543 3632.41 650.135 3469.41 870.421 3506.59 884.725 3452.25 1036.35 3498.01 1022.05 3409.36 1288.11 3512.31 1290.97 3437.96 1434.01 3500.87 1476.92 3420.8 1674.32 3486.57 1680.04 3460.83 1803.27 3483.46 1801.78 3435.9 1943.85 3481.71 1971.35 3424.44 2131.76 3477.12 2221.12 3422.15 2331.11 3479.42 2489.23 3419.86 2498.39 3474.83 2624.42 3424.44 2631.89 3482.28 2695.65 3463.69 2707.09 3498.01 2901.63 3415.08 2955.99 3489.43 3101.89 3426.52 3104.75 3500.87Z" stroke="#000000" stroke-width="41.25" stroke-linecap="round" stroke-linejoin="round" stroke-miterlimit="10" fill-rule="evenodd"/></g></svg>