<svg width="1019" height="236" xmlns="http://www.w3.org/2000/svg" xmlns:xlink="http://www.w3.org/1999/xlink" xml:space="preserve" overflow="hidden"><g transform="translate(-1598 -1147)"><g><g><g><path d="M1761.16 1147C1725.9 1147 1697.31 1175.58 1697.31 1210.84L1697.31 1217.94 1725.69 1217.94 1725.69 1210.84C1725.69 1191.26 1741.57 1175.38 1761.16 1175.38 1780.75 1175.38 1796.62 1191.26 1796.62 1210.84 1796.62 1230.43 1780.75 1246.31 1761.16 1246.31L1754.06 1246.31 1725.69 1246.31 1697.31 1246.31 1668.94 1246.31 1661.84 1246.31C1626.58 1246.31 1598 1274.9 1598 1310.16 1598 1345.42 1626.58 1374 1661.84 1374 1697.1 1374 1725.69 1345.42 1725.69 1310.16L1725.69 1303.06 1697.31 1303.06 1697.31 1310.16C1697.31 1329.75 1681.43 1345.62 1661.84 1345.62 1642.26 1345.62 1626.38 1329.75 1626.38 1310.16 1626.38 1290.57 1642.26 1274.69 1661.84 1274.69L1668.94 1274.69 1697.31 1274.69 1725.69 1274.69 1754.06 1274.69 1761.16 1274.69C1796.42 1274.69 1825 1246.1 1825 1210.84 1825 1175.58 1796.42 1147 1761.16 1147Z" fill="#7F7F7F"/></g></g></g><path d="M2340.74 1175.23C2338 1175.23 2335.64 1175.94 2333.68 1177.36 2331.71 1178.78 2330.23 1180.82 2329.22 1183.49 2328.22 1186.15 2327.72 1189.27 2327.72 1192.85 2327.72 1196.44 2328.23 1199.58 2329.26 1202.28 2330.29 1204.97 2331.77 1207.06 2333.73 1208.54 2335.69 1210.02 2338.02 1210.77 2340.74 1210.77 2343.53 1210.77 2345.9 1210.01 2347.85 1208.49 2349.81 1206.97 2351.29 1204.86 2352.31 1202.15 2353.32 1199.44 2353.83 1196.34 2353.83 1192.85 2353.83 1189.39 2353.33 1186.33 2352.32 1183.67 2351.32 1181 2349.85 1178.93 2347.89 1177.45 2345.94 1175.97 2343.55 1175.23 2340.74 1175.23ZM2252.22 1175.23C2249.41 1175.23 2247.02 1175.97 2245.05 1177.45 2243.08 1178.93 2241.61 1181 2240.62 1183.67 2239.63 1186.33 2239.13 1189.39 2239.13 1192.85 2239.13 1196.34 2239.64 1199.44 2240.65 1202.15 2241.67 1204.86 2243.15 1206.97 2245.1 1208.49 2247.06 1210.01 2249.43 1210.77 2252.22 1210.77 2254.92 1210.77 2257.25 1210.02 2259.21 1208.54 2261.18 1207.06 2262.67 1204.97 2263.68 1202.28 2264.7 1199.58 2265.2 1196.44 2265.2 1192.85 2265.2 1189.27 2264.7 1186.15 2263.7 1183.49 2262.7 1180.82 2261.22 1178.78 2259.27 1177.36 2257.31 1175.94 2254.96 1175.23 2252.22 1175.23ZM1963.15 1174.83C1960.26 1174.83 1957.82 1175.63 1955.82 1177.23 1953.82 1178.83 1952.31 1181.01 1951.31 1183.75 1950.31 1186.5 1949.81 1189.59 1949.81 1193.03 1949.81 1196.47 1950.31 1199.55 1951.31 1202.28 1952.31 1205 1953.82 1207.15 1955.82 1208.74 1957.82 1210.33 1960.26 1211.12 1963.15 1211.12 1965.99 1211.12 1968.39 1210.33 1970.37 1208.74 1972.35 1207.15 1973.84 1204.99 1974.84 1202.26 1975.84 1199.52 1976.34 1196.45 1976.34 1193.03 1976.34 1189.59 1975.84 1186.5 1974.84 1183.75 1973.84 1181.01 1972.35 1178.83 1970.37 1177.23 1968.39 1175.63 1965.99 1174.83 1963.15 1174.83ZM2195.98 1174.69C2193.36 1174.69 2191.04 1175.31 2189.01 1176.55 2186.98 1177.8 2185.4 1179.47 2184.27 1181.59L2182.78 1187.66 2208.5 1187.66C2208.47 1185.18 2207.94 1182.95 2206.89 1181 2205.84 1179.04 2204.37 1177.5 2202.49 1176.38 2200.61 1175.25 2198.44 1174.69 2195.98 1174.69ZM2101.05 1174.69C2098.43 1174.69 2096.1 1175.31 2094.08 1176.55 2092.05 1177.8 2090.47 1179.47 2089.34 1181.59L2087.84 1187.66 2113.57 1187.66C2113.54 1185.18 2113.01 1182.95 2111.96 1181 2110.91 1179.04 2109.44 1177.5 2107.56 1176.38 2105.68 1175.25 2103.51 1174.69 2101.05 1174.69ZM2370.61 1165.34 2384.27 1165.34 2396.97 1206.93 2397.54 1206.93 2410.27 1165.34 2424 1165.34 2401.97 1227.06C2400.33 1231.6 2397.95 1235.06 2394.84 1237.44 2391.73 1239.81 2387.68 1241 2382.7 1241 2381.36 1241 2380.11 1240.98 2378.94 1240.95 2377.77 1240.91 2376.79 1240.84 2375.97 1240.75L2376.05 1230.4C2376.38 1230.42 2376.73 1230.44 2377.08 1230.47 2377.44 1230.49 2377.82 1230.5 2378.23 1230.5 2379.32 1230.55 2380.41 1230.58 2381.48 1230.58 2382.77 1230.58 2383.84 1230.46 2384.68 1230.23 2385.53 1230.01 2386.36 1229.45 2387.17 1228.55 2387.98 1227.66 2388.73 1226.29 2389.42 1224.45L2390.53 1221.51ZM1991.03 1165.34 2004.19 1165.34 2013.88 1204.1 2014.38 1204.1 2024.25 1165.34 2037.27 1165.34 2047.14 1203.89 2047.67 1203.89 2057.22 1165.34 2070.38 1165.34 2054.83 1220.37 2041.45 1220.37 2031.08 1183.07 2030.33 1183.07 2020.03 1220.37 2006.59 1220.37ZM2195.77 1164.63C2200.44 1164.63 2204.67 1165.63 2208.46 1167.63 2212.25 1169.64 2215.27 1172.72 2217.51 1176.88 2219.75 1181.03 2220.87 1186.21 2220.87 1192.42L2220.87 1196.4 2182.66 1196.4 2184.31 1204.26C2185.46 1206.57 2187.1 1208.34 2189.21 1209.57 2191.32 1210.8 2193.79 1211.41 2196.63 1211.41 2198.44 1211.41 2200.08 1211.17 2201.54 1210.68 2203.01 1210.19 2204.27 1209.51 2205.32 1208.63 2206.36 1207.76 2207.18 1206.77 2207.75 1205.64L2220.33 1205.64C2219.55 1208.82 2218.08 1211.6 2215.94 1213.97 2213.79 1216.35 2211.06 1218.19 2207.73 1219.49 2204.4 1220.79 2200.64 1221.44 2196.45 1221.44 2191.01 1221.44 2186.28 1220.29 2182.25 1218 2178.22 1215.71 2175.13 1212.43 2172.99 1208.15 2170.84 1203.88 2169.77 1198.88 2169.77 1193.18 2169.77 1187.56 2170.85 1182.6 2173.01 1178.27 2175.16 1173.95 2178.21 1170.6 2182.14 1168.21 2186.08 1165.82 2190.62 1164.63 2195.77 1164.63ZM2100.84 1164.63C2105.51 1164.63 2109.74 1165.63 2113.53 1167.63 2117.32 1169.64 2120.34 1172.72 2122.58 1176.88 2124.82 1181.03 2125.94 1186.21 2125.94 1192.42L2125.94 1196.4 2087.72 1196.4 2089.38 1204.26C2090.53 1206.57 2092.17 1208.34 2094.27 1209.57 2096.38 1210.8 2098.86 1211.41 2101.7 1211.41 2103.51 1211.41 2105.15 1211.17 2106.61 1210.68 2108.08 1210.19 2109.34 1209.51 2110.39 1208.63 2111.43 1207.76 2112.24 1206.77 2112.82 1205.64L2125.4 1205.64C2124.62 1208.82 2123.15 1211.6 2121.01 1213.97 2118.86 1216.35 2116.12 1218.19 2112.8 1219.49 2109.47 1220.79 2105.71 1221.44 2101.52 1221.44 2096.08 1221.44 2091.35 1220.29 2087.32 1218 2083.29 1215.71 2080.2 1212.43 2078.06 1208.15 2075.91 1203.88 2074.84 1198.88 2074.84 1193.18 2074.84 1187.56 2075.92 1182.6 2078.08 1178.27 2080.23 1173.95 2083.28 1170.6 2087.21 1168.21 2091.15 1165.82 2095.69 1164.63 2100.84 1164.63ZM1963.11 1164.63C1968.38 1164.63 1973.01 1165.81 1976.99 1168.17 1980.97 1170.54 1984.03 1173.87 1986.18 1178.17 1988.32 1182.46 1989.4 1187.43 1989.4 1193.07 1989.4 1198.7 1988.32 1203.66 1986.18 1207.94 1984.03 1212.21 1980.97 1215.53 1976.99 1217.89 1973.01 1220.26 1968.38 1221.44 1963.11 1221.44 1957.82 1221.44 1953.19 1220.26 1949.22 1217.89 1945.25 1215.53 1942.18 1212.21 1940.01 1207.94 1937.84 1203.66 1936.76 1198.7 1936.76 1193.07 1936.76 1187.43 1937.84 1182.46 1940.01 1178.17 1942.18 1173.87 1945.25 1170.54 1949.22 1168.17 1953.19 1165.81 1957.82 1164.63 1963.11 1164.63ZM2159.94 1164.55C2160.7 1164.55 2161.5 1164.58 2162.33 1164.64 2163.17 1164.7 2163.93 1164.79 2164.62 1164.91L2164.62 1176.77C2163.93 1176.58 2163.01 1176.4 2161.87 1176.25 2160.72 1176.09 2159.64 1176.02 2158.61 1176.02 2156.25 1176.02 2154.13 1176.52 2152.25 1177.54 2150.36 1178.55 2148.89 1179.97 2147.81 1181.78 2146.74 1183.6 2146.2 1185.65 2146.2 1187.95L2146.2 1220.37 2133.3 1220.37 2133.3 1165.34 2145.81 1165.34 2145.81 1174.51 2146.38 1174.51C2147.03 1172.43 2148.02 1170.64 2149.35 1169.12 2150.69 1167.6 2152.26 1166.46 2154.07 1165.7 2155.88 1164.94 2157.84 1164.55 2159.94 1164.55ZM1888.16 1158.03 1888.16 1184.69 1900.46 1184.69C1903.68 1184.69 1906.36 1184.12 1908.49 1182.98 1910.62 1181.85 1912.21 1180.29 1913.25 1178.29 1914.28 1176.3 1914.8 1173.96 1914.8 1171.29 1914.8 1168.61 1914.28 1166.28 1913.25 1164.3 1912.21 1162.32 1910.62 1160.78 1908.49 1159.68 1906.36 1158.58 1903.67 1158.03 1900.43 1158.03ZM2315.14 1147 2328.04 1147 2328.04 1174.41 2328.54 1174.41C2328.62 1174.26 2328.69 1174.12 2328.78 1173.97 2328.86 1173.83 2328.94 1173.68 2329.01 1173.51 2329.94 1171.84 2331.01 1170.37 2332.21 1169.12 2333.41 1167.87 2335.02 1166.8 2337.04 1165.93 2339.05 1165.06 2341.45 1164.63 2344.24 1164.63 2348.53 1164.63 2352.4 1165.72 2355.83 1167.92 2359.26 1170.12 2361.97 1173.35 2363.97 1177.63 2365.96 1181.9 2366.95 1187 2366.95 1192.93 2366.95 1198.82 2365.97 1203.91 2364.02 1208.19 2362.06 1212.46 2359.37 1215.72 2355.94 1217.97 2352.5 1220.21 2348.62 1221.33 2344.28 1221.33 2341.47 1221.33 2339.03 1220.88 2336.97 1219.97 2334.9 1219.06 2333.26 1217.97 2332.03 1216.68 2330.8 1215.39 2329.74 1213.91 2328.83 1212.23 2328.78 1212.14 2328.74 1212.05 2328.69 1211.97 2328.64 1211.88 2328.59 1211.79 2328.54 1211.7L2327.79 1211.7 2327.79 1220.37 2315.14 1220.37ZM2264.92 1147 2277.79 1147 2277.79 1220.37 2265.17 1220.37 2265.17 1211.7 2264.42 1211.7C2264.37 1211.79 2264.32 1211.88 2264.27 1211.97 2264.22 1212.05 2264.18 1212.14 2264.13 1212.23 2263.18 1213.93 2262.08 1215.42 2260.86 1216.69 2259.63 1217.97 2258 1219.06 2255.96 1219.97 2253.92 1220.88 2251.48 1221.33 2248.64 1221.33 2244.31 1221.33 2240.43 1220.21 2237.01 1217.97 2233.58 1215.72 2230.89 1212.46 2228.92 1208.19 2226.96 1203.91 2225.97 1198.82 2225.97 1192.93 2225.97 1187 2226.97 1181.9 2228.96 1177.63 2230.95 1173.35 2233.66 1170.12 2237.09 1167.92 2240.53 1165.72 2244.39 1164.63 2248.68 1164.63 2251.52 1164.63 2253.95 1165.07 2255.98 1165.97 2258 1166.86 2259.62 1167.96 2260.82 1169.25 2262.03 1170.54 2263.09 1172.02 2264.02 1173.69 2264.09 1173.81 2264.16 1173.93 2264.22 1174.05 2264.28 1174.17 2264.34 1174.29 2264.42 1174.41L2264.92 1174.41ZM1875 1147 1902.43 1147C1907.91 1147 1912.59 1148.04 1916.46 1150.12 1920.34 1152.19 1923.27 1155.06 1925.26 1158.71 1927.25 1162.37 1928.25 1166.56 1928.25 1171.29 1928.25 1176.04 1927.25 1180.24 1925.24 1183.9 1923.24 1187.55 1920.28 1190.41 1916.37 1192.46 1912.47 1194.51 1907.76 1195.54 1902.25 1195.54L1888.16 1195.54 1888.16 1220.37 1875 1220.37Z" fill="#7F7F7F" fill-rule="evenodd"/><path d="M2113.76 1319.98 2112.97 1320.03C2112.14 1320.08 2111.13 1320.14 2109.95 1320.21 2107.66 1320.34 2105.33 1320.48 2102.98 1320.65 2100.62 1320.81 2098.67 1320.96 2097.13 1321.09 2092.8 1321.42 2089.44 1322.48 2087.03 1324.28 2084.62 1326.07 2083.42 1328.59 2083.42 1331.82 2083.42 1333.95 2083.96 1335.75 2085.04 1337.22 2086.12 1338.69 2087.62 1339.81 2089.54 1340.57 2091.45 1341.34 2093.66 1341.73 2096.15 1341.73 2099.65 1341.73 2102.74 1341.02 2105.41 1339.62 2108.08 1338.21 2110.14 1336.33 2111.6 1333.96 2113.06 1331.59 2113.78 1329 2113.78 1326.19ZM2381.43 1291.43C2377.56 1291.43 2374.28 1292.44 2371.57 1294.45 2368.87 1296.46 2366.84 1299.26 2365.48 1302.85 2364.12 1306.45 2363.44 1310.57 2363.44 1315.21 2363.44 1319.85 2364.12 1323.9 2365.48 1327.36 2366.84 1330.83 2368.87 1333.51 2371.57 1335.4 2374.28 1337.3 2377.56 1338.25 2381.43 1338.25 2385.19 1338.25 2388.41 1337.34 2391.08 1335.53 2393.75 1333.71 2395.78 1331.07 2397.17 1327.61 2398.56 1324.14 2399.26 1320.01 2399.26 1315.21 2399.26 1310.43 2398.57 1306.25 2397.2 1302.66 2395.82 1299.06 2393.79 1296.29 2391.1 1294.35 2388.42 1292.4 2385.19 1291.43 2381.43 1291.43ZM2582.8 1290.7C2579.2 1290.7 2576.01 1291.55 2573.22 1293.25 2570.44 1294.94 2568.27 1297.24 2566.71 1300.13L2564.66 1308.44 2600 1308.44C2599.97 1305.04 2599.23 1302 2597.79 1299.32 2596.35 1296.64 2594.33 1294.54 2591.75 1293 2589.16 1291.46 2586.18 1290.7 2582.8 1290.7ZM2431.46 1277.9 2449.2 1277.9 2449.2 1353.2 2431.46 1353.2ZM1933.43 1277.9 1952.2 1277.9 1969.65 1334.81 1970.43 1334.81 1987.92 1277.9 2006.79 1277.9 1976.52 1362.36C1974.26 1368.57 1971 1373.3 1966.72 1376.55 1962.45 1379.81 1956.89 1381.43 1950.04 1381.43 1948.21 1381.43 1946.49 1381.41 1944.88 1381.36 1943.28 1381.31 1941.92 1381.22 1940.8 1381.09L1940.9 1366.92C1941.36 1366.95 1941.84 1366.99 1942.33 1367.02 1942.82 1367.05 1943.34 1367.07 1943.9 1367.07 1945.41 1367.13 1946.9 1367.17 1948.37 1367.17 1950.14 1367.17 1951.61 1367.01 1952.77 1366.7 1953.93 1366.39 1955.07 1365.62 1956.18 1364.4 1957.3 1363.17 1958.33 1361.3 1959.28 1358.78L1960.8 1354.76ZM2582.51 1276.92C2588.93 1276.92 2594.74 1278.29 2599.95 1281.04 2605.16 1283.78 2609.3 1288 2612.38 1293.69 2615.46 1299.37 2617 1306.46 2617 1314.96L2617 1320.4 2564.49 1320.4 2566.76 1331.16C2568.35 1334.32 2570.59 1336.73 2573.49 1338.42 2576.39 1340.1 2579.79 1340.94 2583.69 1340.94 2586.18 1340.94 2588.43 1340.61 2590.44 1339.94 2592.46 1339.27 2594.19 1338.34 2595.63 1337.14 2597.07 1335.95 2598.18 1334.59 2598.97 1333.05L2616.26 1333.05C2615.18 1337.4 2613.17 1341.19 2610.22 1344.45 2607.27 1347.7 2603.51 1350.21 2598.94 1352 2594.37 1353.78 2589.21 1354.67 2583.44 1354.67 2575.97 1354.67 2569.47 1353.1 2563.94 1349.96 2558.4 1346.82 2554.16 1342.33 2551.21 1336.48 2548.26 1330.63 2546.79 1323.8 2546.79 1315.99 2546.79 1308.31 2548.27 1301.51 2551.24 1295.6 2554.2 1289.68 2558.38 1285.09 2563.79 1281.82 2569.19 1278.56 2575.43 1276.92 2582.51 1276.92ZM2507.37 1276.92C2512.54 1276.92 2517.08 1278.04 2520.98 1280.28 2524.88 1282.52 2527.89 1285.76 2530.02 1290.01 2532.15 1294.26 2533.21 1299.34 2533.21 1305.26L2533.21 1353.2 2515.48 1353.2 2515.48 1307.95C2515.48 1304.62 2514.89 1301.74 2513.73 1299.32 2512.57 1296.91 2510.88 1295.06 2508.67 1293.78 2506.46 1292.51 2503.83 1291.87 2500.79 1291.87 2497.64 1291.87 2494.86 1292.55 2492.46 1293.91 2490.05 1295.26 2488.17 1297.24 2486.81 1299.84 2485.45 1302.44 2484.77 1305.52 2484.77 1309.08L2484.77 1353.2 2467.03 1353.2 2467.03 1277.9 2483.98 1277.9 2483.98 1290.7 2484.92 1290.7C2486.06 1287.85 2487.68 1285.41 2489.78 1283.37 2491.88 1281.33 2494.41 1279.74 2497.37 1278.61 2500.33 1277.49 2503.67 1276.92 2507.37 1276.92ZM2376.56 1276.92C2380.43 1276.92 2383.75 1277.53 2386.54 1278.76 2389.32 1279.99 2391.55 1281.47 2393.22 1283.22 2394.89 1284.97 2396.38 1286.97 2397.69 1289.23 2397.82 1289.39 2397.93 1289.57 2398.01 1289.76 2398.09 1289.96 2398.18 1290.14 2398.28 1290.3L2399.21 1290.3 2399.21 1277.9 2416.65 1277.9 2416.65 1354.42C2416.65 1360.66 2415.16 1365.92 2412.16 1370.21 2409.16 1374.49 2405 1377.69 2399.68 1379.81 2394.36 1381.94 2388.22 1383 2381.28 1383 2374.69 1383 2368.93 1382.07 2363.98 1380.21 2359.04 1378.34 2355.14 1375.67 2352.29 1372.19 2349.44 1368.71 2347.8 1364.62 2347.38 1359.91L2365.11 1359.91C2365.54 1362.1 2366.47 1363.92 2367.91 1365.38 2369.36 1366.83 2371.23 1367.91 2373.54 1368.61 2375.85 1369.32 2378.53 1369.67 2381.57 1369.67 2387.14 1369.67 2391.46 1368.39 2394.54 1365.84 2397.62 1363.29 2399.16 1359.34 2399.16 1353.98L2399.16 1339.67 2398.23 1339.67C2398.2 1339.7 2398.16 1339.76 2398.13 1339.84 2398.1 1339.92 2398.07 1339.98 2398.03 1340.01 2396.82 1342.3 2395.36 1344.3 2393.66 1346.02 2391.96 1347.73 2389.67 1349.18 2386.81 1350.35 2383.94 1351.53 2380.51 1352.12 2376.51 1352.12 2370.58 1352.12 2365.26 1350.7 2360.54 1347.88 2355.83 1345.05 2352.12 1340.84 2349.42 1335.23 2346.71 1329.63 2345.36 1322.87 2345.36 1314.96 2345.36 1306.92 2346.73 1300.04 2349.47 1294.32 2352.2 1288.6 2355.93 1284.27 2360.64 1281.33 2365.36 1278.39 2370.67 1276.92 2376.56 1276.92ZM2305.79 1276.92C2310.97 1276.92 2315.51 1278.04 2319.4 1280.28 2323.3 1282.52 2326.32 1285.76 2328.44 1290.01 2330.57 1294.26 2331.64 1299.34 2331.64 1305.26L2331.64 1353.2 2313.9 1353.2 2313.9 1307.95C2313.9 1304.62 2313.32 1301.74 2312.16 1299.32 2310.99 1296.91 2309.31 1295.06 2307.1 1293.78 2304.89 1292.51 2302.26 1291.87 2299.21 1291.87 2296.07 1291.87 2293.29 1292.55 2290.88 1293.91 2288.47 1295.26 2286.59 1297.24 2285.23 1299.84 2283.87 1302.44 2283.19 1305.52 2283.19 1309.08L2283.19 1353.2 2265.46 1353.2 2265.46 1277.9 2282.41 1277.9 2282.41 1290.7 2283.34 1290.7C2284.49 1287.85 2286.11 1285.41 2288.2 1283.37 2290.3 1281.33 2292.83 1279.74 2295.8 1278.61 2298.76 1277.49 2302.09 1276.92 2305.79 1276.92ZM2100.52 1276.92C2105.86 1276.92 2110.83 1277.74 2115.43 1279.37 2120.03 1281.01 2123.83 1283.76 2126.83 1287.63 2129.83 1291.51 2131.32 1296.58 2131.32 1302.85L2131.32 1353.2 2114.37 1353.2 2114.37 1342.85 2113.78 1342.85C2112.6 1345.11 2111.03 1347.13 2109.07 1348.91 2107.1 1350.69 2104.65 1352.1 2101.7 1353.15 2098.75 1354.19 2095.38 1354.72 2091.58 1354.72 2086.73 1354.72 2082.4 1353.85 2078.58 1352.12 2074.76 1350.39 2071.76 1347.81 2069.56 1344.4 2067.37 1340.98 2066.27 1336.87 2066.27 1332.07 2066.27 1324.29 2068.89 1318.68 2074.13 1315.23 2079.38 1311.78 2086.14 1309.76 2094.43 1309.18 2096.59 1309.05 2099.22 1308.9 2102.31 1308.74 2105.41 1308.57 2108.27 1308.43 2110.89 1308.29 2111.8 1308.26 2112.58 1308.23 2113.22 1308.2L2113.71 1308.18 2113.69 1302.12C2113.69 1299.63 2113.16 1297.52 2112.11 1295.77 2111.07 1294.02 2109.52 1292.69 2107.47 1291.78 2105.42 1290.86 2102.94 1290.4 2100.03 1290.4 2097.44 1290.4 2095.17 1290.77 2093.22 1291.51 2091.27 1292.24 2089.68 1293.28 2088.46 1294.62 2087.23 1295.96 2086.38 1297.54 2085.93 1299.37L2068.83 1299.37C2069.25 1295.06 2070.78 1291.21 2073.42 1287.83 2076.06 1284.45 2079.69 1281.78 2084.33 1279.84 2088.96 1277.89 2094.36 1276.92 2100.52 1276.92ZM2053.06 1276.82C2054.1 1276.82 2055.2 1276.86 2056.35 1276.95 2057.49 1277.03 2058.54 1277.15 2059.49 1277.31L2059.49 1293.54C2058.54 1293.28 2057.28 1293.04 2055.71 1292.83 2054.14 1292.62 2052.65 1292.51 2051.24 1292.51 2048 1292.51 2045.08 1293.2 2042.49 1294.59 2039.91 1295.98 2037.87 1297.92 2036.4 1300.4 2034.93 1302.89 2034.19 1305.7 2034.19 1308.83L2034.19 1353.2 2016.45 1353.2 2016.45 1277.9 2033.65 1277.9 2033.65 1290.45 2034.43 1290.45C2035.32 1287.61 2036.68 1285.15 2038.51 1283.07 2040.35 1281 2042.51 1279.44 2045 1278.39 2047.49 1277.35 2050.17 1276.82 2053.06 1276.82ZM2183.29 1252.8 2248.69 1252.8 2248.69 1268 2201.37 1268 2201.37 1295.35 2245.25 1295.35 2245.25 1310.5 2201.37 1310.5 2201.37 1338 2249.03 1338 2249.03 1353.2 2183.29 1353.2ZM1875 1252.8 1893.08 1252.8 1893.08 1338 1937.5 1338 1937.5 1353.2 1875 1353.2ZM2440.35 1248C2442.19 1248 2443.89 1248.43 2445.46 1249.3 2447.03 1250.17 2448.29 1251.33 2449.22 1252.78 2450.15 1254.23 2450.62 1255.84 2450.62 1257.61 2450.62 1259.34 2450.15 1260.93 2449.22 1262.39 2448.29 1263.84 2447.03 1265 2445.46 1265.87 2443.89 1266.73 2442.19 1267.17 2440.35 1267.17 2438.52 1267.17 2436.81 1266.73 2435.22 1265.87 2433.63 1265 2432.38 1263.84 2431.46 1262.39 2430.54 1260.93 2430.08 1259.34 2430.08 1257.61 2430.08 1255.84 2430.54 1254.23 2431.46 1252.78 2432.38 1251.33 2433.63 1250.17 2435.22 1249.3 2436.81 1248.43 2438.52 1248 2440.35 1248Z" fill="#7F7F7F" fill-rule="evenodd"/></g></svg>