<svg width="2198" height="197" xmlns="http://www.w3.org/2000/svg" xmlns:xlink="http://www.w3.org/1999/xlink" xml:space="preserve" overflow="hidden"><defs><filter id="fx0" x="-10%" y="-10%" width="120%" height="120%" filterUnits="userSpaceOnUse" primitiveUnits="userSpaceOnUse"><feComponentTransfer color-interpolation-filters="sRGB"><feFuncR type="discrete" tableValues="0 0"/><feFuncG type="discrete" tableValues="0 0"/><feFuncB type="discrete" tableValues="0 0"/><feFuncA type="linear" slope="0.2" intercept="0"/></feComponentTransfer><feGaussianBlur stdDeviation="0 0"/></filter><clipPath id="clip1"><rect x="1102" y="-355" width="2198" height="197"/></clipPath></defs><g clip-path="url(#clip1)" transform="translate(-1102 355)"><rect x="1102" y="-355" width="2198" height="197" fill="#FFFFFF" fill-opacity="0"/><g filter="url(#fx0)" transform="translate(1137 -325)"><g><path d="M72.8104 0.722595 1072.65 0.722595 2108.18 0.722595C2130.02 0.722595 2147.72 18.4215 2147.72 40.2544L2147.72 82.6491C2147.72 122.454 2115.45 154.723 2075.63 154.723L1072.65 154.723 40.2622 154.723C18.425 154.723 0.722534 137.024 0.722534 115.191L0.722534 72.7961C0.722534 32.9911 32.9975 0.722595 72.8104 0.722595Z" fill="#F5F5F1" fill-rule="evenodd"/></g></g><path d="M1200.09-334 2199.93-334 3235.46-334C3257.3-334 3275-316.301 3275-294.468L3275-252.074C3275-212.269 3242.73-180 3202.91-180L2199.93-180 1167.54-180C1145.7-180 1128-197.699 1128-219.532L1128-261.927C1128-301.732 1160.27-334 1200.09-334Z" fill="#F5F5F1" fill-rule="evenodd"/><path d="M3204-179.374 3212.9-173C3218.21-178.508 3221.42-180.003 3224.15-186.928 3232.7-179.885 3251.49-182.679 3259.53-192.357 3267.58-202.036 3275.19-231.308 3272.42-245 3270.35-241.459 3265.37-238.716 3259.53-237.446 3247.52-234.837 3230.71-237.092 3219.93-224.226 3213.35-216.369 3212.12-199.046 3218.76-191.413 3214.08-185.511 3211.5-183.623 3204-179.374Z" stroke="#F5F5F1" stroke-width="13.75" stroke-linecap="round" stroke-linejoin="round" stroke-miterlimit="10" fill="none" fill-rule="evenodd"/><path d="M3204-179.374 3212.9-173C3218.21-178.508 3221.42-180.003 3224.15-186.928 3232.7-179.885 3251.49-182.679 3259.53-192.357 3267.58-202.036 3275.19-231.308 3272.42-245 3270.35-241.459 3265.37-238.716 3259.53-237.446 3247.52-234.837 3230.71-237.092 3219.93-224.226 3213.35-216.369 3212.12-199.046 3218.76-191.413 3214.08-185.511 3211.5-183.623 3204-179.374Z" fill="#A1D380" fill-rule="evenodd"/><path d="M3225.1-190.025C3225.64-189.399 3229.37-200.893 3235.59-209.025 3241.8-217.157 3261.53-228.339 3260.99-228.965 3260.45-229.59 3238.54-221.849 3232.32-212.779 3226.11-203.708 3224.56-190.65 3225.1-190.025Z" fill="#F5F5F1" fill-rule="evenodd"/></g></svg>