<svg width="83" height="85" xmlns="http://www.w3.org/2000/svg" xmlns:xlink="http://www.w3.org/1999/xlink" xml:space="preserve" overflow="hidden"><g transform="translate(-1211 -692)"><path d="M1218 763.715 1226.9 770C1232.21 764.568 1235.42 763.094 1238.15 756.266 1246.7 763.21 1265.49 760.456 1273.53 750.911 1281.58 741.367 1289.19 712.501 1286.42 699 1284.35 702.492 1279.38 705.197 1273.53 706.449 1261.52 709.022 1244.71 706.798 1233.93 719.485 1227.35 727.234 1226.12 744.316 1232.76 751.843 1228.08 757.662 1225.5 759.524 1218 763.715Z" stroke="#F5F5F1" stroke-width="13.75" stroke-linecap="round" stroke-linejoin="round" stroke-miterlimit="10" fill="none" fill-rule="evenodd"/><path d="M1218 763.715 1226.9 770C1232.21 764.568 1235.42 763.094 1238.15 756.266 1246.7 763.21 1265.49 760.456 1273.53 750.911 1281.58 741.367 1289.19 712.501 1286.42 699 1284.35 702.492 1279.38 705.197 1273.53 706.449 1261.52 709.022 1244.71 706.798 1233.93 719.485 1227.35 727.234 1226.12 744.316 1232.76 751.843 1228.08 757.662 1225.5 759.524 1218 763.715Z" fill="#A1D380" fill-rule="evenodd"/><path d="M1238.1 752.976C1238.64 753.601 1242.37 742.107 1248.59 733.975 1254.8 725.843 1274.53 714.661 1273.99 714.035 1273.45 713.41 1251.54 721.151 1245.32 730.221 1239.11 739.292 1237.56 752.35 1238.1 752.976Z" fill="#F5F5F1" fill-rule="evenodd"/></g></svg>