<svg width="2542" height="278" xmlns="http://www.w3.org/2000/svg" xmlns:xlink="http://www.w3.org/1999/xlink" xml:space="preserve" overflow="hidden"><defs><filter id="fx0" x="-10%" y="-10%" width="120%" height="120%" filterUnits="userSpaceOnUse" primitiveUnits="userSpaceOnUse"><feComponentTransfer color-interpolation-filters="sRGB"><feFuncR type="discrete" tableValues="0 0"/><feFuncG type="discrete" tableValues="0 0"/><feFuncB type="discrete" tableValues="0 0"/><feFuncA type="linear" slope="0.4" intercept="0"/></feComponentTransfer><feGaussianBlur stdDeviation="0 0"/></filter><filter id="fx1" x="-10%" y="-10%" width="120%" height="120%" filterUnits="userSpaceOnUse" primitiveUnits="userSpaceOnUse"><feComponentTransfer color-interpolation-filters="sRGB"><feFuncR type="discrete" tableValues="0.486275 0.486275"/><feFuncG type="discrete" tableValues="0.788235 0.788235"/><feFuncB type="discrete" tableValues="0.282353 0.282353"/><feFuncA type="linear" slope="0.2" intercept="0"/></feComponentTransfer><feGaussianBlur stdDeviation="0 0"/></filter><clipPath id="clip2"><rect x="910" y="550" width="2542" height="278"/></clipPath><clipPath id="clip3"><rect x="1" y="1" width="2430" height="162"/></clipPath><linearGradient x1="7.22266" y1="82.2228" x2="2425.22" y2="82.2228" gradientUnits="userSpaceOnUse" spreadMethod="reflect" id="fill4"><stop offset="0" stop-color="#FFFFFF" stop-opacity="0.8"/><stop offset="0.01" stop-color="#FFFFFF" stop-opacity="0.8"/><stop offset="0.5" stop-color="#FFFFFF" stop-opacity="0.901961"/><stop offset="0.99" stop-color="#FFFFFF" stop-opacity="0.8"/><stop offset="1" stop-color="#FFFFFF" stop-opacity="0.8"/></linearGradient><linearGradient x1="972.5" y1="689.5" x2="3390.5" y2="689.5" gradientUnits="userSpaceOnUse" spreadMethod="reflect" id="fill5"><stop offset="0" stop-color="#FFFFFF" stop-opacity="0.8"/><stop offset="0.01" stop-color="#FFFFFF" stop-opacity="0.8"/><stop offset="0.5" stop-color="#FFFFFF" stop-opacity="0.901961"/><stop offset="0.99" stop-color="#FFFFFF" stop-opacity="0.8"/><stop offset="1" stop-color="#FFFFFF" stop-opacity="0.8"/></linearGradient><linearGradient x1="995.999" y1="688" x2="3390" y2="688" gradientUnits="userSpaceOnUse" spreadMethod="reflect" id="fill6"><stop offset="0" stop-color="#FFFFFF"/><stop offset="0.01" stop-color="#FFFFFF"/><stop offset="0.5" stop-color="#FFFFFF" stop-opacity="0"/><stop offset="0.99" stop-color="#FFFFFF"/><stop offset="1" stop-color="#FFFFFF"/></linearGradient><linearGradient x1="996" y1="688" x2="3390" y2="688" gradientUnits="userSpaceOnUse" spreadMethod="reflect" id="fill7"><stop offset="0" stop-color="#FFFFFF"/><stop offset="0.01" stop-color="#FFFFFF"/><stop offset="0.5" stop-color="#FFFFFF" stop-opacity="0"/><stop offset="0.99" stop-color="#FFFFFF"/><stop offset="1" stop-color="#FFFFFF"/></linearGradient><clipPath id="clip8"><rect x="1" y="1" width="181" height="159"/></clipPath></defs><g clip-path="url(#clip2)" transform="translate(-910 -550)"><rect x="910" y="550" width="2542" height="278" fill="#FFFFFF" fill-opacity="0"/><g clip-path="url(#clip3)" filter="url(#fx0)" transform="translate(975 617)"><g><path d="M7.22266 82.2228C7.22266 40.8015 40.801 7.22284 82.2219 7.22284L2350.22 7.22284C2391.64 7.22284 2425.22 40.8015 2425.22 82.2228L2425.22 82.2228C2425.22 123.644 2391.64 157.223 2350.22 157.223L82.2219 157.223C40.801 157.223 7.22266 123.644 7.22266 82.2228Z" stroke="#FFFFFF" stroke-width="11" stroke-miterlimit="8" fill="url(#fill4)" fill-rule="evenodd"/></g></g><path d="M972.5 689.5C972.5 648.079 1006.08 614.5 1047.5 614.5L3315.5 614.5C3356.92 614.5 3390.5 648.079 3390.5 689.5L3390.5 689.5C3390.5 730.921 3356.92 764.5 3315.5 764.5L1047.5 764.5C1006.08 764.5 972.5 730.921 972.5 689.5Z" stroke="#FFFFFF" stroke-width="11.4583" stroke-miterlimit="8" fill="url(#fill5)" fill-rule="evenodd"/><path d="M1413.92 711.548C1414 711.581 1414.08 711.617 1414.16 711.653 1415.78 712.445 1416.46 714.407 1415.67 716.031L1405.62 736.658 1415.67 757.285C1416.11 758.192 1416.11 759.256 1415.67 760.163 1414.87 761.787 1412.92 762.462 1411.3 761.666L1390.73 751.587 1370.17 761.666C1369.27 762.109 1368.21 762.109 1367.3 761.666 1365.68 760.87 1365.01 758.909 1365.81 757.285L1375.86 736.658 1365.81 716.031C1365.36 715.127 1365.37 714.07 1365.81 713.166 1366.59 711.538 1368.55 710.864 1370.17 711.656L1390.73 721.736 1411.3 711.656C1412.12 711.253 1413.07 711.214 1413.92 711.548ZM1291.86 711.548C1291.94 711.581 1292.02 711.617 1292.1 711.653 1293.72 712.445 1294.39 714.407 1293.6 716.031L1283.55 736.658 1293.6 757.285C1294.05 758.192 1294.05 759.256 1293.6 760.163 1292.81 761.787 1290.85 762.462 1289.24 761.666L1268.67 751.587 1248.11 761.666C1247.2 762.109 1246.14 762.109 1245.24 761.666 1243.62 760.87 1242.95 758.909 1243.74 757.285L1253.8 736.658 1243.74 716.031C1243.3 715.127 1243.3 714.07 1243.74 713.166 1244.53 711.538 1246.49 710.864 1248.11 711.656L1268.67 721.736 1289.24 711.656C1290.05 711.253 1291.01 711.214 1291.86 711.548ZM1168.15 711.548C1168.23 711.581 1168.31 711.617 1168.39 711.653 1170.01 712.445 1170.69 714.407 1169.9 716.031L1159.85 736.658 1169.9 757.285C1170.34 758.192 1170.34 759.256 1169.9 760.163 1169.11 761.787 1167.15 762.462 1165.53 761.666L1144.97 751.587 1124.41 761.666C1123.5 762.109 1122.44 762.109 1121.53 761.666 1119.91 760.87 1119.24 758.909 1120.04 757.285L1130.09 736.658 1120.04 716.031C1119.6 715.127 1119.6 714.07 1120.04 713.166 1120.83 711.538 1122.78 710.864 1124.41 711.656L1144.97 721.736 1165.53 711.656C1166.35 711.253 1167.3 711.214 1168.15 711.548ZM1044.45 711.548C1044.53 711.581 1044.61 711.617 1044.69 711.653 1046.31 712.445 1046.99 714.407 1046.2 716.031L1036.15 736.658 1046.2 757.285C1046.64 758.192 1046.64 759.256 1046.2 760.163 1045.4 761.787 1043.45 762.462 1041.83 761.666L1021.26 751.587 1014.34 754.979 1001.64 746.39 1006.39 736.658 996.333 716.031C995.892 715.127 995.896 714.07 996.333 713.166 997.123 711.538 999.079 710.864 1000.7 711.656L1021.26 721.736 1041.83 711.656C1042.65 711.253 1043.6 711.214 1044.45 711.548ZM1353.61 652.093C1353.69 652.126 1353.77 652.162 1353.85 652.198 1355.47 652.99 1356.15 654.952 1355.36 656.576L1345.31 677.202 1355.36 697.829C1355.8 698.737 1355.8 699.8 1355.36 700.708 1354.56 702.332 1352.61 703.006 1350.99 702.211L1330.43 692.132 1309.86 702.211C1308.96 702.653 1307.9 702.653 1306.99 702.211 1305.37 701.415 1304.7 699.454 1305.5 697.829L1315.55 677.202 1305.5 656.576C1305.06 655.672 1305.06 654.614 1305.5 653.71 1306.29 652.083 1308.24 651.409 1309.86 652.201L1330.43 662.28 1350.99 652.201C1351.81 651.798 1352.76 651.759 1353.61 652.093ZM1230.1 652.093C1230.18 652.126 1230.26 652.162 1230.34 652.198 1231.96 652.99 1232.64 654.952 1231.85 656.576L1221.8 677.202 1231.85 697.829C1232.29 698.737 1232.29 699.8 1231.85 700.708 1231.06 702.332 1229.1 703.006 1227.48 702.211L1206.92 692.132 1186.36 702.211C1185.45 702.653 1184.39 702.653 1183.48 702.211 1181.86 701.415 1181.19 699.454 1181.99 697.829L1192.04 677.202 1181.99 656.576C1181.55 655.672 1181.55 654.614 1181.99 653.71 1182.78 652.083 1184.73 651.409 1186.36 652.201L1206.92 662.28 1227.48 652.201C1228.3 651.798 1229.25 651.759 1230.1 652.093ZM1106.59 652.093C1106.68 652.126 1106.75 652.162 1106.84 652.198 1108.46 652.99 1109.13 654.952 1108.34 656.576L1098.29 677.202 1108.34 697.829C1108.78 698.737 1108.78 699.8 1108.34 700.708 1107.55 702.332 1105.59 703.006 1103.97 702.211L1083.41 692.132 1062.85 702.211C1061.94 702.653 1060.88 702.653 1059.97 702.211 1058.35 701.415 1057.69 699.454 1058.48 697.829L1068.53 677.202 1058.48 656.576C1058.04 655.672 1058.04 654.614 1058.48 653.71 1059.27 652.083 1061.22 651.409 1062.85 652.201L1083.41 662.28 1103.97 652.201C1104.79 651.798 1105.75 651.759 1106.59 652.093ZM1036.18 615.14 1046.2 635.697C1046.64 636.604 1046.64 637.668 1046.2 638.575 1045.4 640.199 1043.45 640.874 1041.83 640.078L1021.26 629.999 1000.7 640.078C999.794 640.52 998.736 640.52 997.828 640.078 996.209 639.282 995.54 637.321 996.333 635.697L996.973 634.385 1018.42 619.879C1022.89 617.986 1027.57 616.516 1032.42 615.52ZM1375.34 614 1406.14 614 1405.62 615.07 1415.67 635.697C1416.11 636.604 1416.11 637.668 1415.67 638.575 1414.87 640.199 1412.92 640.874 1411.3 640.078L1390.73 629.999 1370.17 640.078C1369.27 640.52 1368.21 640.52 1367.3 640.078 1365.68 639.282 1365.01 637.321 1365.81 635.697L1375.86 615.07ZM1253.28 614 1284.08 614 1283.55 615.07 1293.6 635.697C1294.05 636.604 1294.05 637.668 1293.6 638.575 1292.81 640.199 1290.85 640.874 1289.24 640.078L1268.67 629.999 1248.11 640.078C1247.2 640.52 1246.14 640.52 1245.24 640.078 1243.62 639.282 1242.95 637.321 1243.74 635.697L1253.8 615.07ZM1129.57 614 1160.37 614 1159.85 615.07 1169.9 635.697C1170.34 636.604 1170.34 637.668 1169.9 638.575 1169.11 640.199 1167.15 640.874 1165.53 640.078L1144.97 629.999 1124.41 640.078C1123.5 640.52 1122.44 640.52 1121.53 640.078 1119.91 639.282 1119.24 637.321 1120.04 635.697L1130.09 615.07Z" fill="url(#fill6)" fill-rule="evenodd"/><path d="M3343.35 711.548C3343.43 711.581 3343.51 711.617 3343.6 711.653 3345.22 712.445 3345.9 714.407 3345.11 716.031L3335.02 736.658 3345.07 757.214 3344.29 757.738 3337.19 759.941 3320.09 751.587 3299.46 761.666C3298.54 762.109 3297.48 762.109 3296.57 761.666 3294.95 760.87 3294.28 758.909 3295.07 757.285L3305.16 736.658 3295.07 716.031C3294.63 715.127 3294.63 714.07 3295.07 713.166 3295.86 711.538 3297.83 710.864 3299.46 711.656L3320.09 721.736 3340.72 711.656C3341.54 711.253 3342.5 711.214 3343.35 711.548ZM3220.87 711.548C3220.95 711.581 3221.03 711.617 3221.11 711.653 3222.74 712.445 3223.42 714.407 3222.62 716.031L3212.54 736.658 3222.62 757.285C3223.07 758.192 3223.07 759.256 3222.62 760.163 3221.83 761.787 3219.87 762.462 3218.24 761.666L3197.61 751.587 3176.97 761.666C3176.06 762.109 3175 762.109 3174.09 761.666 3172.47 760.87 3171.79 758.909 3172.59 757.285L3182.68 736.658 3172.59 716.031C3172.15 715.127 3172.15 714.07 3172.59 713.166 3173.38 711.538 3175.35 710.864 3176.97 711.656L3197.61 721.736 3218.24 711.656C3219.06 711.253 3220.02 711.214 3220.87 711.548ZM3096.74 711.548C3096.82 711.581 3096.9 711.617 3096.99 711.653 3098.61 712.445 3099.29 714.407 3098.5 716.031L3088.41 736.658 3098.5 757.285C3098.94 758.192 3098.94 759.256 3098.5 760.163 3097.7 761.787 3095.74 762.462 3094.11 761.666L3073.48 751.587 3052.85 761.666C3051.93 762.109 3050.87 762.109 3049.96 761.666 3048.34 760.87 3047.67 758.909 3048.46 757.285L3058.55 736.658 3048.46 716.031C3048.02 715.127 3048.02 714.07 3048.46 713.166 3049.26 711.538 3051.22 710.864 3052.85 711.656L3073.48 721.736 3094.11 711.656C3094.93 711.253 3095.89 711.214 3096.74 711.548ZM2972.61 711.548C2972.7 711.581 2972.78 711.617 2972.86 711.653 2974.48 712.445 2975.16 714.407 2974.37 716.031L2964.28 736.658 2974.37 757.285C2974.81 758.192 2974.81 759.256 2974.37 760.163 2973.57 761.787 2971.61 762.462 2969.98 761.666L2949.35 751.587 2928.72 761.666C2927.81 762.109 2926.75 762.109 2925.83 761.666 2924.21 760.87 2923.54 758.909 2924.33 757.285L2934.42 736.658 2924.33 716.031C2923.89 715.127 2923.9 714.07 2924.33 713.166 2925.13 711.538 2927.09 710.864 2928.72 711.656L2949.35 721.736 2969.98 711.656C2970.81 711.253 2971.76 711.214 2972.61 711.548ZM3362.87 652.201 3383.5 662.28 3384.54 661.774 3390 688.808 3388.81 694.722 3383.5 692.132 3362.87 702.211C3361.96 702.653 3360.9 702.653 3359.99 702.211 3358.36 701.415 3357.69 699.454 3358.49 697.829L3368.58 677.202 3358.49 656.576C3358.05 655.672 3358.05 654.614 3358.49 653.711 3359.28 652.083 3361.24 651.409 3362.87 652.201ZM3282.84 652.093C3282.92 652.126 3283 652.162 3283.08 652.198 3284.7 652.99 3285.38 654.952 3284.59 656.576L3274.51 677.202 3284.59 697.829C3285.04 698.737 3285.04 699.8 3284.59 700.708 3283.79 702.332 3281.83 703.006 3280.21 702.211L3259.57 692.132 3238.94 702.211C3238.03 702.653 3236.97 702.653 3236.06 702.211 3234.43 701.415 3233.76 699.454 3234.56 697.829L3244.65 677.202 3234.56 656.576C3234.11 655.672 3234.12 654.614 3234.56 653.711 3235.35 652.083 3237.31 651.409 3238.94 652.201L3259.57 662.28 3280.21 652.201C3281.03 651.798 3281.99 651.759 3282.84 652.093ZM3158.91 652.093C3158.99 652.126 3159.07 652.162 3159.15 652.198 3160.77 652.99 3161.45 654.952 3160.66 656.576L3150.57 677.202 3160.66 697.829C3161.1 698.737 3161.1 699.8 3160.66 700.708 3159.86 702.332 3157.9 703.006 3156.28 702.211L3135.64 692.132 3115.01 702.211C3114.1 702.653 3113.04 702.653 3112.13 702.211 3110.5 701.415 3109.83 699.454 3110.63 697.829L3120.72 677.202 3110.63 656.576C3110.18 655.672 3110.19 654.614 3110.63 653.711 3111.42 652.083 3113.38 651.409 3115.01 652.201L3135.64 662.28 3156.28 652.201C3157.1 651.798 3158.05 651.759 3158.91 652.093ZM3034.97 652.093C3035.06 652.126 3035.13 652.162 3035.22 652.198 3036.84 652.99 3037.52 654.952 3036.73 656.576L3026.64 677.202 3036.73 697.829C3037.17 698.737 3037.17 699.8 3036.73 700.708 3035.93 702.332 3033.97 703.006 3032.34 702.211L3011.71 692.132 2991.08 702.211C2990.17 702.653 2989.1 702.653 2988.19 702.211 2986.57 701.415 2985.9 699.454 2986.69 697.829L2996.78 677.202 2986.69 656.576C2986.25 655.672 2986.25 654.614 2986.69 653.711 2987.49 652.083 2989.45 651.409 2991.08 652.201L3011.71 662.28 3032.34 652.201C3033.17 651.798 3034.12 651.759 3034.97 652.093ZM3304.64 614 3315.16 614C3320.33 614 3325.37 614.523 3330.24 615.52L3336.14 617.348 3345.11 635.697C3345.55 636.604 3345.55 637.668 3345.11 638.575 3344.31 640.199 3342.35 640.874 3340.72 640.078L3320.09 629.999 3299.46 640.078C3298.54 640.52 3297.48 640.52 3296.57 640.078 3294.95 639.282 3294.28 637.321 3295.07 635.697L3305.16 615.07ZM3182.16 614 3213.06 614 3212.54 615.07 3222.62 635.697C3223.07 636.604 3223.07 637.668 3222.62 638.575 3221.83 640.199 3219.87 640.874 3218.24 640.078L3197.61 629.999 3176.97 640.078C3176.06 640.52 3175 640.52 3174.09 640.078 3172.47 639.282 3171.79 637.321 3172.59 635.697L3182.68 615.07ZM3058.03 614 3088.94 614 3088.41 615.07 3098.5 635.697C3098.94 636.604 3098.94 637.668 3098.5 638.575 3097.7 640.199 3095.74 640.874 3094.11 640.078L3073.48 629.999 3052.85 640.078C3051.93 640.52 3050.87 640.52 3049.96 640.078 3048.34 639.282 3047.67 637.321 3048.46 635.697L3058.55 615.07ZM2933.9 614 2964.81 614 2964.28 615.07 2974.37 635.697C2974.81 636.604 2974.81 637.668 2974.37 638.575 2973.57 640.199 2971.61 640.874 2969.98 640.078L2949.35 629.999 2928.72 640.078C2927.81 640.52 2926.75 640.52 2925.83 640.078 2924.21 639.282 2923.54 637.321 2924.33 635.697L2934.42 615.07Z" fill="url(#fill7)" fill-rule="evenodd"/><g clip-path="url(#clip8)" filter="url(#fx1)" transform="translate(929 588)"><g><path d="M91.0001 4.6665C138.773 4.6665 177.5 34.4347 177.5 71.1559 177.5 103.287 147.849 130.095 108.433 136.295L107.881 136.337 105.887 143.773C105.381 147.335 105.345 151.233 106.062 155.667 91.2867 152.091 80.8149 147.871 72.7102 142.365L62.8643 133.741 57.3302 132.42C26.2841 122.327 4.50012 98.6968 4.50012 71.1559 4.50012 34.4347 43.2273 4.6665 91.0001 4.6665Z" stroke="#FFFFFF" stroke-width="7" stroke-linecap="round" stroke-linejoin="round" stroke-miterlimit="10" fill="#F0F9E9" fill-rule="evenodd" fill-opacity="0.701961"/></g></g><path d="M1020 583.5C1067.77 583.5 1106.5 613.268 1106.5 649.989 1106.5 682.12 1076.85 708.928 1037.43 715.128L1036.88 715.171 1034.89 722.606C1034.38 726.168 1034.34 730.066 1035.06 734.5 1020.29 730.924 1009.81 726.705 1001.71 721.198L991.864 712.574 986.33 711.254C955.284 701.16 933.5 677.53 933.5 649.989 933.5 613.268 972.227 583.5 1020 583.5Z" stroke="#FFFFFF" stroke-width="6.875" stroke-linecap="round" stroke-linejoin="round" stroke-miterlimit="10" fill="#F0F9E9" fill-rule="evenodd" fill-opacity="0.701961"/><path d="M979 651.5C979 646.806 982.582 643 987 643 991.418 643 995 646.806 995 651.5 995 656.194 991.418 660 987 660 982.582 660 979 656.194 979 651.5Z" fill="#7CC948" fill-rule="evenodd"/><path d="M1012 651.5C1012 646.806 1015.81 643 1020.5 643 1025.19 643 1029 646.806 1029 651.5 1029 656.194 1025.19 660 1020.5 660 1015.81 660 1012 656.194 1012 651.5Z" fill="#7CC948" fill-rule="evenodd"/><path d="M1046 651.5C1046 646.806 1049.81 643 1054.5 643 1059.19 643 1063 646.806 1063 651.5 1063 656.194 1059.19 660 1054.5 660 1049.81 660 1046 656.194 1046 651.5Z" fill="#7CC948" fill-rule="evenodd"/><path d="M3411.25 749.54 3366.84 724.301 3374.95 702.237 3425.13 711.777Z" stroke="#FFFFFF" stroke-width="9.16667" stroke-linecap="round" stroke-linejoin="round" stroke-miterlimit="10" fill="#7CC948" fill-rule="evenodd"/><path d="M3386.41 810.04 3355.97 760.817 3375.92 743.411 3420.56 780.25Z" stroke="#FFFFFF" stroke-width="9.16667" stroke-linecap="round" stroke-linejoin="round" stroke-miterlimit="10" fill="#7CC948" fill-rule="evenodd"/></g></svg>