<svg width="3514" height="788" xmlns="http://www.w3.org/2000/svg" xmlns:xlink="http://www.w3.org/1999/xlink" xml:space="preserve" overflow="hidden"><g transform="translate(-443 -66)"><rect x="443" y="66" width="3514" height="788" fill="#FFFFFF" fill-opacity="0"/><path d="M827.663 166 3622.75 166C3678.88 166 3727.03 200.083 3747.6 248.656L3750.62 263.557 3775.32 291.315C3807.25 334.803 3827 394.882 3827 461.242 3827 527.603 3807.25 587.682 3775.32 631.17L3749.97 659.658 3747.6 671.344C3727.03 719.917 3678.88 754 3622.75 754L827.663 754C771.536 754 723.379 719.917 702.809 671.344 702.772 671.161 702.735 670.978 702.698 670.795L680.767 663.201C617.437 633.321 573 563.37 573 481.841 573 400.312 617.437 330.36 680.767 300.48L693.204 296.174C696.878 287.536 690.651 277.365 702.809 248.656 723.379 200.083 771.536 166 827.663 166Z" fill-rule="evenodd"/></g></svg>