<svg width="3514" height="788" xmlns="http://www.w3.org/2000/svg" xmlns:xlink="http://www.w3.org/1999/xlink" xml:space="preserve" overflow="hidden"><g transform="translate(-443 -1687)"><rect x="443" y="1687" width="3514" height="788" fill="#FFFFFF" fill-opacity="0"/><path d="M2214.04 1764C2341.94 1764 2461.9 1774.88 2565.36 1793.89L2613.31 1804.51 2658.43 1786.32C2694.76 1774.9 2734.69 1768.59 2776.62 1768.59 2839.5 1768.59 2897.92 1782.79 2946.38 1807.12L2962.05 1816.73 2976.12 1810.19C2992.98 1804.07 3011.52 1800.69 3030.98 1800.69 3040.71 1800.69 3050.21 1801.54 3059.38 1803.15L3083.25 1809.5 3147.88 1791.12C3193.28 1781.02 3242.75 1775.47 3294.51 1775.47 3377.32 1775.47 3454.26 1789.67 3518.08 1814L3547.46 1827.68 3564.81 1821.35C3578.9 1817.96 3593.5 1816.18 3608.45 1816.18 3728.05 1816.18 3825 1930.15 3825 2070.75 3825 2123.47 3811.37 2172.45 3788.02 2213.08L3769.76 2239.09 3770 2239.96C3770 2322.02 3680.23 2388.54 3569.49 2388.54 3541.81 2388.54 3515.43 2384.38 3491.44 2376.86L3467.32 2367.16 3435.91 2377.08C3380.5 2390.11 3313.7 2397.71 3241.8 2397.71 3169.9 2397.71 3103.1 2390.11 3047.69 2377.08L3027.52 2371.3 2979.91 2383.27C2921.65 2394.69 2857.6 2401 2790.37 2401 2689.51 2401 2595.82 2386.8 2518.1 2362.47L2458.64 2339.74 2452.33 2346.28C2426.83 2368.14 2391.6 2381.66 2352.68 2381.66 2323.49 2381.66 2296.38 2374.05 2273.88 2361.03L2258.08 2349.86 2250.58 2352.18C2153.47 2376.85 2036.42 2391.25 1910.41 2391.25 1826.41 2391.25 1746.38 2384.85 1673.59 2373.27L1613.44 2361 1613.39 2361.03C1590.9 2374.05 1563.78 2381.66 1534.6 2381.66 1505.41 2381.66 1478.29 2374.05 1455.8 2361.03L1450.12 2356.61 1379.53 2373.27C1316.61 2384.85 1247.44 2391.25 1174.82 2391.25 1065.9 2391.25 964.718 2376.85 880.782 2352.18L853.932 2342.55 850.468 2343.6C835.327 2346.65 819.65 2348.25 803.592 2348.25 675.135 2348.25 571 2245.83 571 2119.48 571 2024.72 629.576 1943.42 713.057 1908.69L731.993 1902.91 735.755 1896.97C783.73 1836.12 864.976 1796.11 957.127 1796.11 998.594 1796.11 1037.85 1804.21 1072.87 1818.67L1082.6 1823.46 1106.22 1812.48C1123.08 1806.37 1141.62 1802.99 1161.07 1802.99 1180.53 1802.99 1199.07 1806.37 1215.93 1812.48L1229.88 1818.97 1259.85 1807.12C1335.01 1782.79 1425.61 1768.59 1523.14 1768.59 1620.67 1768.59 1711.27 1782.79 1786.43 1807.12L1792.67 1809.59 1819.42 1802.53C1932.07 1778.2 2067.87 1764 2214.04 1764Z" fill-rule="evenodd"/></g></svg>