<svg width="3004" height="3004" xmlns="http://www.w3.org/2000/svg" xmlns:xlink="http://www.w3.org/1999/xlink" xml:space="preserve" overflow="hidden"><defs><filter id="fx0" x="-10%" y="-10%" width="120%" height="120%" filterUnits="userSpaceOnUse" primitiveUnits="userSpaceOnUse"><feComponentTransfer color-interpolation-filters="sRGB"><feFuncR type="discrete" tableValues="0 0"/><feFuncG type="discrete" tableValues="0 0"/><feFuncB type="discrete" tableValues="0 0"/><feFuncA type="linear" slope="0.4" intercept="0"/></feComponentTransfer><feGaussianBlur stdDeviation="0 0"/></filter><clipPath id="clip1"><rect x="1396" y="-529" width="3004" height="3004"/></clipPath><linearGradient x1="1396" y1="-529" x2="4400" y2="2475" gradientUnits="userSpaceOnUse" spreadMethod="reflect" id="fill2"><stop offset="0" stop-color="#002060" stop-opacity="0"/><stop offset="0.5" stop-color="#002060" stop-opacity="0"/><stop offset="0.99" stop-color="#002060" stop-opacity="0.501961"/><stop offset="1" stop-color="#002060" stop-opacity="0.501961"/></linearGradient><linearGradient x1="3337.09" y1="892.774" x2="3708.21" y2="2277.82" gradientUnits="userSpaceOnUse" spreadMethod="reflect" id="fill3"><stop offset="0" stop-color="#F2F2F2"/><stop offset="0.01" stop-color="#F2F2F2"/><stop offset="0.99" stop-color="#7F7F7F"/><stop offset="1" stop-color="#7F7F7F"/></linearGradient><clipPath id="clip4"><path d="M3495.33 1220.34C3483.96 1219.18 3473.59 1220.96 3465.08 1226.4 3457.19 1231.45 3455.66 1249.39 3460.45 1269.27L3468.61 1289.7 3430.74 1293.45C3368.28 1305.05 3338.35 1338.06 3318.28 1358.1 3285.01 1391.32 3237.23 1417.65 3189.82 1416.5 3196.7 1442.84 3208.17 1458.87 3231.11 1471.47 3204.83 1505.11 3204.53 1534.27 3227.7 1557.29L3231.04 1559.91 3219.21 1574.53C3210.66 1582.55 3201.1 1589.42 3190.97 1595.15L3169.18 1572.24C3153.88 1602.78 3150.06 1627.59 3185.23 1656.99 3161.91 1658.51 3142.03 1656.6 3118.71 1651.26 3091.57 1694.78 3113.55 1756.61 3164.59 1785.24 3215.63 1813.87 3306.81 1794.79 3342.36 1740.58 3355.7 1720.26 3367.42 1701.86 3377.89 1683.95L3378.77 1682.25 3409 1692.19C3425.22 1696.81 3442.77 1701.12 3461.64 1705.08 3499.4 1713 3531.06 1716.88 3557.81 1717.6L3589.97 1716.56 3588.58 1723.18C3585.7 1742.14 3585.51 1764.77 3588.95 1793.26 3598.13 1869.22 3688.35 1927.43 3744.93 1919.23 3801.52 1911.02 3839.94 1859.11 3838.98 1812.73 3811.46 1807 3803.43 1805.86 3780.49 1778.37 3809.93 1771.88 3823.31 1757.38 3820.63 1724.55L3794.25 1729.13C3792.72 1711 3788.9 1694.59 3782.35 1678.17L3771 1654.5 3779.83 1644.27C3790.7 1628.45 3799.54 1608.2 3805.72 1582.55 3816.31 1538.58 3795.29 1456.98 3735.2 1391.61L3708.53 1367.53 3723.39 1357.5C3748.58 1337.93 3766.87 1311.01 3763.29 1299.69 3753.54 1268.97 3665.03 1276.41 3601.57 1291.68 3572.61 1253.89 3529.46 1223.83 3495.33 1220.34ZM1396-529 4400-529 4400 2475 1396 2475Z" fill-rule="evenodd" clip-rule="evenodd"/></clipPath><clipPath id="clip5"><rect x="1" y="1" width="760" height="728"/></clipPath></defs><g clip-path="url(#clip1)" transform="translate(-1396 529)"><rect x="1396" y="-529" width="3004" height="3004" fill="url(#fill2)"/><path d="M3119.15 1224.01C3235.62 1022.27 3493.59 953.145 3695.33 1069.62L3905.95 1191.22C4107.69 1307.7 4176.81 1565.66 4060.33 1767.4L3938.73 1978.02C3822.26 2179.76 3564.29 2248.88 3362.55 2132.41L3151.93 2010.81C2950.19 1894.33 2881.07 1636.37 2997.55 1434.63Z" fill="#000000" fill-rule="evenodd" fill-opacity="0.501961"/><path d="M3157.4 1249.27C3261.21 1069.45 3491.14 1007.84 3670.96 1111.66L3858.68 1220.04C4038.5 1323.86 4100.11 1553.79 3996.29 1733.6L3887.91 1921.33C3784.09 2101.14 3554.16 2162.75 3374.35 2058.94L3186.62 1950.55C3006.81 1846.74 2945.2 1616.81 3049.01 1436.99Z" fill="#FFFFFF" fill-rule="evenodd" fill-opacity="0.2"/><path d="M3494.53 1087.01C3367.73 1083.71 3243.16 1148.15 3175.28 1265.72L3072.2 1444.26C2973.47 1615.27 3032.06 1833.94 3203.07 1932.67L3381.61 2035.75C3552.62 2134.48 3771.29 2075.89 3870.02 1904.88L3973.1 1726.34C4071.84 1555.33 4013.24 1336.66 3842.23 1237.93L3663.7 1134.85C3610.25 1103.99 3552.16 1088.5 3494.53 1087.01ZM3491.7 1036.88C3555.13 1038.52 3619.07 1055.57 3677.89 1089.53L3874.38 1202.98C4062.6 1311.65 4127.09 1552.32 4018.42 1740.53L3904.97 1937.03C3796.31 2125.24 3555.64 2189.73 3367.42 2081.07L3170.92 1967.62C2982.71 1858.95 2918.22 1618.28 3026.89 1430.07L3140.33 1233.57C3215.04 1104.17 3352.14 1033.25 3491.7 1036.88Z" fill="url(#fill3)" fill-rule="evenodd"/><path d="M3149.34 889.589 3135.07 990.675 3226.67 1035.75 3125.59 1021.48 3080.52 1113.08 3094.78 1011.99 3003.18 966.922 3104.27 981.189Z" stroke="#FFFFFF" stroke-width="13.75" stroke-linecap="round" stroke-linejoin="round" stroke-miterlimit="10" fill="#FFFFFF" fill-rule="evenodd"/><path d="M4058.96 1681.59 4044.69 1782.67 4136.29 1827.74 4035.21 1813.48 3990.14 1905.08 4004.4 1803.99 3912.8 1758.92 4013.89 1773.19Z" stroke="#FFFFFF" stroke-width="13.75" stroke-linecap="round" stroke-linejoin="round" stroke-miterlimit="10" fill="#FFFFFF" fill-rule="evenodd"/><path d="M3066.95 1908.57 3049.1 2035.05 3163.72 2091.45 3037.23 2073.6 2980.84 2188.22 2998.69 2061.73 2884.07 2005.33 3010.56 2023.18Z" stroke="#FFFFFF" stroke-width="13.75" stroke-linecap="round" stroke-linejoin="round" stroke-miterlimit="10" fill="#FFFFFF" fill-rule="evenodd"/><path d="M2875.66 1494.27 2868.34 1546.15 2915.36 1569.29 2863.47 1561.97 2840.33 1608.99 2847.65 1557.1 2800.63 1533.96 2852.52 1541.29Z" stroke="#FFFFFF" stroke-width="13.75" stroke-linecap="round" stroke-linejoin="round" stroke-miterlimit="10" fill="#FFFFFF" fill-rule="evenodd"/><g clip-path="url(#clip4)"><g clip-path="url(#clip5)" filter="url(#fx0)" transform="translate(3108 1221)"><g><path d="M403.539 15.5428C437.66 19.032 480.813 49.0926 509.773 86.8829 573.236 71.6142 661.741 64.1705 671.49 94.899 675.079 106.213 656.784 133.132 631.59 152.709L616.734 162.736 643.406 186.816C703.498 252.18 724.513 333.785 713.926 377.754 707.749 403.408 698.902 423.654 688.036 439.474L679.2 449.707 690.557 473.376C697.105 489.79 700.928 506.204 702.457 524.335L728.836 519.755C731.512 552.583 718.132 567.088 688.694 573.577 711.632 601.061 719.661 602.206 747.187 607.932 748.143 654.311 709.721 706.225 653.139 714.432 596.557 722.639 506.333 664.427 497.157 588.464 493.716 559.979 493.905 537.344 496.784 518.386L498.175 511.765 466.01 512.802C439.261 512.083 407.601 508.207 369.848 500.286 350.971 496.326 333.425 492.011 317.201 487.395L286.976 477.457 286.091 479.155C275.62 497.066 263.901 515.46 250.567 535.787 215.013 589.991 123.832 609.077 72.7937 580.448 21.7556 551.819-0.227439 489.98 26.9166 446.464 50.2373 451.808 70.1176 453.717 93.4383 452.19 58.2658 422.797 62.0891 397.986 77.3814 367.448L99.173 390.351C109.304 384.625 118.862 377.754 127.416 369.738L139.244 355.109 135.9 352.494C112.733 329.479 113.032 300.313 139.316 266.674 116.377 254.077 104.908 238.045 98.0264 211.706 145.433 212.851 193.214 186.52 226.482 153.303 246.554 133.262 276.481 100.25 338.946 88.6527L376.81 84.906 368.658 64.4734C363.866 44.5978 365.395 26.6568 373.289 21.6087 381.795 16.1693 392.165 14.38 403.539 15.5428Z" stroke="#656646" stroke-width="27" stroke-linecap="round" stroke-linejoin="round" stroke-miterlimit="10" fill="#656646" fill-rule="evenodd"/></g></g></g><path d="M3495.33 1220.34C3529.46 1223.83 3572.61 1253.89 3601.57 1291.68 3665.03 1276.41 3753.54 1268.97 3763.29 1299.69 3766.87 1311.01 3748.58 1337.93 3723.39 1357.5L3708.53 1367.53 3735.2 1391.61C3795.29 1456.98 3816.31 1538.58 3805.72 1582.55 3799.54 1608.2 3790.7 1628.45 3779.83 1644.27L3771 1654.5 3782.35 1678.17C3788.9 1694.59 3792.72 1711 3794.25 1729.13L3820.63 1724.55C3823.31 1757.38 3809.93 1771.88 3780.49 1778.37 3803.43 1805.86 3811.46 1807 3838.98 1812.73 3839.94 1859.11 3801.52 1911.02 3744.93 1919.23 3688.35 1927.43 3598.13 1869.22 3588.95 1793.26 3585.51 1764.77 3585.7 1742.14 3588.58 1723.18L3589.97 1716.56 3557.81 1717.6C3531.06 1716.88 3499.4 1713 3461.64 1705.08 3442.77 1701.12 3425.22 1696.81 3409 1692.19L3378.77 1682.25 3377.89 1683.95C3367.42 1701.86 3355.7 1720.26 3342.36 1740.58 3306.81 1794.79 3215.63 1813.87 3164.59 1785.24 3113.55 1756.61 3091.57 1694.78 3118.71 1651.26 3142.03 1656.6 3161.91 1658.51 3185.23 1656.99 3150.06 1627.59 3153.88 1602.78 3169.18 1572.24L3190.97 1595.15C3201.1 1589.42 3210.66 1582.55 3219.21 1574.53L3231.04 1559.91 3227.7 1557.29C3204.53 1534.27 3204.83 1505.11 3231.11 1471.47 3208.17 1458.87 3196.7 1442.84 3189.82 1416.5 3237.23 1417.65 3285.01 1391.32 3318.28 1358.1 3338.35 1338.06 3368.28 1305.05 3430.74 1293.45L3468.61 1289.7 3460.45 1269.27C3455.66 1249.39 3457.19 1231.45 3465.08 1226.4 3473.59 1220.96 3483.96 1219.18 3495.33 1220.34Z" stroke="#656646" stroke-width="27.5" stroke-linecap="round" stroke-linejoin="round" stroke-miterlimit="10" fill="#656646" fill-rule="evenodd"/><path d="M3241.72 1547.5C3229.5 1568.08 3211.56 1584.08 3191.33 1595.51L3169.58 1572.65C3154.31 1603.13 3150.49 1627.9 3185.61 1657.24 3162.33 1658.77 3142.48 1656.86 3119.19 1651.53 3092.09 1694.97 3114.04 1756.7 3165 1785.28 3215.95 1813.86 3306.99 1794.8 3342.49 1740.69 3377.99 1686.59 3402.03 1646.19 3421.5 1592.08L3241.72 1547.5Z" stroke="#656646" stroke-width="6.875" stroke-linecap="round" stroke-linejoin="round" stroke-miterlimit="10" fill="#F4D374" fill-rule="evenodd"/><path d="M3754.48 1627.5C3779.37 1663.79 3791.62 1693.2 3794.68 1729.49L3821.1 1724.91C3823.78 1757.76 3810.38 1772.28 3780.9 1778.77 3803.87 1806.27 3811.91 1807.42 3839.48 1813.15 3840.44 1859.56 3801.96 1911.51 3745.29 1919.73 3688.62 1927.94 3598.25 1869.69 3589.06 1793.67 3579.87 1717.65 3596.53 1683.27 3621.23 1649.27L3754.48 1627.5Z" stroke="#656646" stroke-width="6.875" stroke-linecap="round" stroke-linejoin="round" stroke-miterlimit="10" fill="#F4D374" fill-rule="evenodd"/><path d="M3673.88 1380.5C3718.66 1376.49 3768.78 1318.39 3763.05 1300.27 3753.33 1269.51 3665.12 1276.96 3601.87 1292.24 3563.38 1241.81 3499.74 1205.13 3465.83 1226.91 3450.09 1237.02 3459.73 1298.74 3494.41 1324.34L3673.88 1380.5Z" stroke="#656646" stroke-width="6.875" stroke-linecap="round" stroke-linejoin="round" stroke-miterlimit="10" fill="#656646" fill-rule="evenodd"/><path d="M3294.78 1591.94C3214.18 1567.89 3189.74 1525.52 3231.75 1471.7 3208.83 1459.11 3197.38 1443.07 3190.5 1416.74 3237.87 1417.88 3285.61 1391.55 3318.85 1358.33 3350.93 1326.27 3408.23 1261 3583.56 1303.37 3758.89 1345.74 3822.8 1512.43 3805.88 1582.78 3781.19 1685.39 3713.82 1701.49 3645.44 1693.86L3294.78 1591.94Z" stroke="#656646" stroke-width="6.875" stroke-linecap="round" stroke-linejoin="round" stroke-miterlimit="10" fill="#F4D374" fill-rule="evenodd"/><path d="M3500.18 1377.5 3586.83 1423.82 3588.32 1436.38C3592.96 1460.03 3600.89 1484.9 3607.94 1501.48 3617.85 1524.8 3648.21 1551.41 3672.57 1562.39L3676.11 1563.57 3698.5 1663.35C3666.78 1704.49 3613.29 1737.59 3462.35 1705.83 3311.41 1674.07 3245.58 1619.59 3260.59 1569.22 3278.65 1508.57 3371.02 1480.44 3405.03 1450.97 3439.04 1421.51 3448.78 1404.67 3464.64 1392.42Z" stroke="#656646" stroke-width="6.875" stroke-linecap="round" stroke-linejoin="round" stroke-miterlimit="10" fill="#F6EEEA" fill-rule="evenodd"/><path d="M3499.67 1310.5C3451.81 1353.47 3436.11 1390.74 3438.79 1439.42L3505.41 1446.26 3514.6 1431.43 3511.15 1449.68 3575.48 1472.5C3599.22 1438.65 3620.66 1397.96 3605.35 1333.32" stroke="#656646" stroke-width="6.875" stroke-linecap="round" stroke-linejoin="round" stroke-miterlimit="10" fill="#F4D374" fill-rule="evenodd"/><path d="M3686.03 1388C3700.02 1388 3711.36 1399.03 3711.36 1412.63 3711.36 1416.03 3710.65 1419.27 3709.37 1422.22L3704.9 1428.67 3713.67 1426.95C3727.66 1426.95 3739 1437.98 3739 1451.58 3739 1461.79 3732.62 1470.54 3723.53 1474.28L3718.17 1475.33 3719.42 1481.37C3719.42 1494.97 3708.08 1506 3694.09 1506 3687.1 1506 3680.76 1503.24 3676.18 1498.79L3672.22 1493.08 3665.95 1497.19C3662.92 1498.44 3659.59 1499.13 3656.09 1499.13 3642.1 1499.13 3630.76 1488.1 3630.76 1474.5 3630.76 1467.69 3633.59 1461.54 3638.18 1457.08L3641.38 1454.98 3640.47 1454.8C3631.38 1451.06 3625 1442.31 3625 1432.11 3625 1418.5 3636.34 1407.48 3650.33 1407.48 3653.83 1407.48 3657.16 1408.16 3660.19 1409.41L3661.23 1410.09 3662.69 1403.04C3666.53 1394.2 3675.54 1388 3686.03 1388Z" fill="#FFFFFF" fill-rule="evenodd"/><path d="M3656 1445.5C3656 1431.97 3667.42 1421 3681.5 1421 3695.58 1421 3707 1431.97 3707 1445.5 3707 1459.03 3695.58 1470 3681.5 1470 3667.42 1470 3656 1459.03 3656 1445.5Z" fill="#F4D374" fill-rule="evenodd"/><path d="M3386.97 1489.08 3416.43 1482.36 3438.34 1453.96 3439.1 1489.82 3458.81 1512.72 3429.35 1519.44 3407.44 1547.83 3406.68 1511.98 3386.97 1489.08Z" stroke="#000000" stroke-width="6.875" stroke-linecap="round" stroke-linejoin="round" stroke-miterlimit="10" fill="#FFFFFF" fill-rule="evenodd"/><path d="M3509.83 1520.62 3538.58 1511.35 3557.93 1481.15 3561.82 1516.8 3583.45 1537.89 3554.7 1547.16 3535.36 1577.37 3531.46 1541.71 3509.83 1520.62Z" stroke="#000000" stroke-width="6.875" stroke-linecap="round" stroke-linejoin="round" stroke-miterlimit="10" fill="#FFFFFF" fill-rule="evenodd"/><path d="M3425.04 1552.5C3420.73 1576.19 3443.13 1590.47 3463.81 1567.06 3475.87 1597.32 3494.82 1597.6 3515.5 1578.19" stroke="#000000" stroke-width="6.875" stroke-linecap="round" stroke-linejoin="round" stroke-miterlimit="10" fill="none" fill-rule="evenodd"/><path d="M3267.16 1563.12C3277.05 1529.42 3313.61 1510.47 3348.83 1520.8 3384.05 1531.13 3404.59 1566.82 3394.71 1600.52 3384.83 1634.22 3348.27 1653.17 3313.04 1642.85 3277.82 1632.52 3257.28 1596.83 3267.16 1563.12Z" fill="#F2CDC3" fill-rule="evenodd"/><path d="M3513.52 1616.98C3523.4 1583.28 3559.96 1564.33 3595.18 1574.65 3630.41 1584.98 3650.95 1620.67 3641.07 1654.38 3631.18 1688.08 3594.62 1707.03 3559.4 1696.7 3524.18 1686.37 3503.64 1650.68 3513.52 1616.98Z" fill="#F2CDC3" fill-rule="evenodd"/><path d="M3289.44 1459.5C3279.53 1511.84 3279.91 1541.43 3335.2 1558.5 3336.72 1528.91 3335.96 1507.29 3353.5 1469.74" stroke="#656646" stroke-width="6.875" stroke-linecap="round" stroke-linejoin="round" stroke-miterlimit="10" fill="#F4D374" fill-rule="evenodd"/><path d="M3649.98 1533.5C3642.71 1565.18 3636.59 1578.54 3617.83 1607.93L3632.76 1617.09C3617.45 1647.24 3602.14 1663.66 3576.5 1686.94 3644.62 1708.31 3758.68 1705.64 3753.32 1551.82" stroke="#656646" stroke-width="6.875" stroke-linecap="round" stroke-linejoin="round" stroke-miterlimit="10" fill="#F4D374" fill-rule="evenodd"/><path d="M3463.83 1117.85C3485.34 1116.33 3507.08 1116.88 3528.73 1119.56L3588.16 1133.02 3578.93 1160.58C3519.77 1313.42 3381.27 1420.67 3219.84 1420.67 3192.94 1420.67 3166.67 1417.69 3141.3 1412.02L3125.53 1407.59 3196.28 1285.04C3254.26 1184.62 3356.26 1125.46 3463.83 1117.85Z" fill="#FFFFFF" fill-rule="evenodd" fill-opacity="0.501961"/><path d="M3807.74 2118.49 3734.89 2119.05 3735.45 2142.17 3808.3 2141.89ZM3361.37 2092.03C3366.2 2092.03 3370.25 2093.38 3373.51 2096.07 3376.76 2098.77 3378.3 2102.99 3378.11 2108.75 3377.93 2114.69 3377.79 2119.93 3377.69 2124.48 3377.6 2129.03 3377.41 2133.44 3377.14 2137.71 3376.86 2141.98 3376.48 2146.34 3376.02 2150.8 3375.55 2155.26 3375.04 2160.27 3374.48 2165.84 3374.11 2168.44 3373.27 2170.48 3371.97 2171.97 3370.67 2173.45 3368.72 2174.2 3366.11 2174.2L3338.2 2174.2C3335.6 2174.2 3333.55 2173.45 3332.06 2171.97 3330.57 2170.48 3329.83 2168.44 3329.83 2165.84L3329.83 2130.75 3217.35 2133.81C3212.7 2133.81 3210.37 2131.49 3210.37 2126.85L3210.37 2101.78C3210.37 2097.14 3212.7 2094.82 3217.35 2094.82ZM3840.95 2083.68C3845.23 2083.49 3848.67 2084.7 3851.28 2087.3 3853.88 2089.9 3855.09 2093.33 3854.9 2097.6L3853.23 2161.94C3852.86 2170.85 3848.21 2175.5 3839.28 2175.87L3702.24 2176.98C3697.96 2177.17 3694.61 2175.96 3692.19 2173.36 3689.77 2170.76 3688.47 2167.33 3688.28 2163.06L3686.89 2100.11C3686.7 2095.84 3687.91 2092.5 3690.52 2090.09 3693.12 2087.67 3696.56 2086.37 3700.84 2086.19ZM3866.63 2034.1C3869.23 2034.1 3871.28 2034.85 3872.77 2036.33 3874.26 2037.82 3875 2039.86 3875 2042.46L3875 2059.45C3875 2062.05 3874.26 2064.04 3872.77 2065.44 3871.28 2066.83 3869.23 2067.62 3866.63 2067.8L3675.17 2071.98C3672.56 2072.17 3670.51 2071.47 3669.03 2069.89 3667.54 2068.31 3666.79 2066.23 3666.79 2063.63L3666.79 2043.57C3666.79 2040.97 3667.54 2038.93 3669.03 2037.45 3670.51 2035.96 3672.56 2035.22 3675.17 2035.22ZM3277.36 2013.77 3311.13 2013.77C3317.08 2013.4 3319.87 2016.09 3319.5 2021.85L3318.94 2040.23 3389.83 2039.67C3392.44 2039.67 3394.49 2040.42 3395.97 2041.9 3397.46 2043.39 3398.21 2045.43 3398.21 2048.03L3398.21 2067.8C3398.21 2070.4 3397.46 2072.4 3395.97 2073.79 3394.49 2075.18 3392.44 2075.97 3389.83 2076.16L3198.37 2080.34C3195.77 2080.52 3193.72 2079.83 3192.23 2078.25 3190.74 2076.67 3190 2074.58 3190 2071.98L3190 2049.14C3190 2046.54 3190.74 2044.5 3192.23 2043.02 3193.72 2041.53 3195.77 2040.79 3198.37 2040.79L3269.82 2040.51 3269.54 2022.41C3269.36 2016.84 3271.96 2013.96 3277.36 2013.77ZM3504.42 1985.92 3466.18 1986.48 3467.58 2075.88 3504.42 2075.6ZM3772.29 1950.27C3763.17 1950.27 3755.64 1952.45 3749.69 1956.82 3743.73 1961.18 3740.75 1966.7 3740.75 1973.39 3740.75 1976.73 3741.59 1979.79 3743.27 1982.58 3744.94 1985.36 3747.17 1987.82 3749.96 1989.96 3752.75 1992.09 3756.06 1993.72 3759.87 1994.83 3763.69 1995.95 3767.83 1996.5 3772.29 1996.5 3781.41 1996.5 3788.94 1994.37 3794.9 1990.1 3800.85 1985.64 3803.83 1980.07 3803.83 1973.39 3803.83 1966.7 3800.9 1961.18 3795.04 1956.82 3789.18 1952.45 3781.59 1950.27 3772.29 1950.27ZM3534.56 1941.92C3539.77 1941.92 3543.87 1943.4 3546.84 1946.37 3549.82 1949.34 3551.22 1953.43 3551.03 1958.63L3548.8 2102.06C3548.61 2107.26 3547.08 2111.34 3544.19 2114.32 3541.31 2117.29 3537.26 2118.77 3532.05 2118.77L3439.95 2119.89C3434.74 2119.89 3430.64 2118.4 3427.67 2115.43 3424.69 2112.46 3423.2 2108.37 3423.2 2103.18L3419.57 1959.18C3419.39 1953.98 3420.83 1949.9 3423.9 1946.93 3426.97 1943.96 3431.11 1942.47 3436.32 1942.47ZM3584.24 1936.07 3618.29 1936.07C3623.87 1936.07 3626.57 1938.85 3626.39 1944.42L3624.43 2007.92 3647.6 2007.64C3650.57 2007.64 3652.95 2008.53 3654.71 2010.29 3656.48 2012.05 3657.37 2014.42 3657.37 2017.39L3657.37 2040.23C3657.37 2043.2 3656.48 2045.57 3654.71 2047.33 3652.95 2049.1 3650.57 2049.98 3647.6 2049.98L3623.04 2050.54 3620.25 2141.61C3620.25 2147.18 3617.45 2149.97 3611.87 2149.97L3584.52 2149.97C3578.94 2149.97 3576.15 2147.18 3576.15 2141.61L3576.15 1944.42C3576.15 1938.85 3578.85 1936.07 3584.24 1936.07ZM3287.96 1919.36 3318.11 1919.36C3321.83 1919.36 3324.71 1920.52 3326.76 1922.84 3328.8 1925.16 3329.46 1928.17 3328.71 1931.89L3328.71 1934.67C3326.48 1945.07 3322.85 1954.82 3317.83 1963.92 3327.69 1969.3 3337.83 1973.48 3348.25 1976.45 3358.67 1979.42 3369.46 1981.74 3380.62 1983.41 3383.23 1983.78 3384.95 1985.13 3385.79 1987.45 3386.62 1989.77 3386.67 1991.95 3385.93 1994L3379.23 2018.79C3377.55 2023.06 3373.65 2024.73 3367.51 2023.8 3353.55 2021.76 3340.2 2018.6 3327.46 2014.33 3314.71 2010.06 3302.76 2003.75 3291.59 1995.39 3282.47 2003.37 3272.1 2010.24 3260.47 2016 3248.84 2021.76 3236.33 2026.03 3222.93 2028.81 3220.14 2029.37 3217.54 2029.28 3215.12 2028.53 3212.7 2027.79 3210.93 2026.3 3209.82 2024.08L3202 2005.97C3200.88 2003.56 3200.75 2001.19 3201.58 1998.87 3202.42 1996.55 3204.33 1994.93 3207.3 1994 3216.24 1991.4 3224.61 1988.06 3232.42 1983.97 3240.24 1979.89 3247.17 1975.2 3253.22 1969.91 3259.26 1964.61 3264.29 1958.77 3268.29 1952.36 3272.29 1945.95 3275.12 1939.13 3276.8 1931.89 3277.73 1927.62 3279.03 1924.46 3280.71 1922.42 3282.38 1920.38 3284.8 1919.36 3287.96 1919.36ZM3770.9 1911C3783.36 1911 3794.48 1912.44 3804.25 1915.32 3814.02 1918.2 3822.34 1922.23 3829.23 1927.43 3836.11 1932.63 3841.37 1938.71 3845 1945.67 3848.63 1952.64 3850.44 1960.3 3850.44 1968.65 3850.44 1976.82 3848.58 1984.44 3844.86 1991.49 3841.32 1998.55 3836.11 2004.67 3829.23 2009.87 3822.34 2015.07 3814.02 2019.11 3804.25 2021.99 3794.48 2024.87 3783.36 2026.3 3770.9 2026.3 3758.43 2026.3 3747.27 2024.87 3737.4 2021.99 3727.54 2019.11 3719.17 2015.07 3712.29 2009.87 3705.59 2004.67 3700.42 1998.55 3696.8 1991.49 3693.17 1984.44 3691.35 1976.82 3691.35 1968.65 3691.35 1960.3 3693.17 1952.64 3696.8 1945.67 3700.42 1938.71 3705.63 1932.63 3712.43 1927.43 3719.22 1922.23 3727.54 1918.2 3737.4 1915.32 3747.27 1912.44 3758.43 1911 3770.9 1911Z" stroke="#FFFFFF" stroke-width="45.8333" stroke-linecap="round" stroke-linejoin="round" stroke-miterlimit="10" fill="none" fill-rule="evenodd"/><path d="M3807.74 2118.49 3734.89 2119.05 3735.45 2142.17 3808.3 2141.89ZM3361.37 2092.03C3366.2 2092.03 3370.25 2093.38 3373.51 2096.07 3376.76 2098.77 3378.3 2102.99 3378.11 2108.75 3377.93 2114.69 3377.79 2119.93 3377.69 2124.48 3377.6 2129.03 3377.41 2133.44 3377.14 2137.71 3376.86 2141.98 3376.48 2146.34 3376.02 2150.8 3375.55 2155.26 3375.04 2160.27 3374.48 2165.84 3374.11 2168.44 3373.27 2170.48 3371.97 2171.97 3370.67 2173.45 3368.72 2174.2 3366.11 2174.2L3338.2 2174.2C3335.6 2174.2 3333.55 2173.45 3332.06 2171.97 3330.57 2170.48 3329.83 2168.44 3329.83 2165.84L3329.83 2130.75 3217.35 2133.81C3212.7 2133.81 3210.37 2131.49 3210.37 2126.85L3210.37 2101.78C3210.37 2097.14 3212.7 2094.82 3217.35 2094.82ZM3840.95 2083.68C3845.23 2083.49 3848.67 2084.7 3851.28 2087.3 3853.88 2089.9 3855.09 2093.33 3854.9 2097.6L3853.23 2161.94C3852.86 2170.85 3848.21 2175.5 3839.28 2175.87L3702.24 2176.98C3697.96 2177.17 3694.61 2175.96 3692.19 2173.36 3689.77 2170.76 3688.47 2167.33 3688.28 2163.06L3686.89 2100.11C3686.7 2095.84 3687.91 2092.5 3690.52 2090.09 3693.12 2087.67 3696.56 2086.37 3700.84 2086.19ZM3866.63 2034.1C3869.23 2034.1 3871.28 2034.85 3872.77 2036.33 3874.26 2037.82 3875 2039.86 3875 2042.46L3875 2059.45C3875 2062.05 3874.26 2064.04 3872.77 2065.44 3871.28 2066.83 3869.23 2067.62 3866.63 2067.8L3675.17 2071.98C3672.56 2072.17 3670.51 2071.47 3669.03 2069.89 3667.54 2068.31 3666.79 2066.23 3666.79 2063.63L3666.79 2043.57C3666.79 2040.97 3667.54 2038.93 3669.03 2037.45 3670.51 2035.96 3672.56 2035.22 3675.17 2035.22ZM3277.36 2013.77 3311.13 2013.77C3317.08 2013.4 3319.87 2016.09 3319.5 2021.85L3318.94 2040.23 3389.83 2039.67C3392.44 2039.67 3394.49 2040.42 3395.97 2041.9 3397.46 2043.39 3398.21 2045.43 3398.21 2048.03L3398.21 2067.8C3398.21 2070.4 3397.46 2072.4 3395.97 2073.79 3394.49 2075.18 3392.44 2075.97 3389.83 2076.16L3198.37 2080.34C3195.77 2080.52 3193.72 2079.83 3192.23 2078.25 3190.74 2076.67 3190 2074.58 3190 2071.98L3190 2049.14C3190 2046.54 3190.74 2044.5 3192.23 2043.02 3193.72 2041.53 3195.77 2040.79 3198.37 2040.79L3269.82 2040.51 3269.54 2022.41C3269.36 2016.84 3271.96 2013.96 3277.36 2013.77ZM3504.42 1985.92 3466.18 1986.48 3467.58 2075.88 3504.42 2075.6ZM3772.29 1950.27C3763.17 1950.27 3755.64 1952.45 3749.69 1956.82 3743.73 1961.18 3740.75 1966.7 3740.75 1973.39 3740.75 1976.73 3741.59 1979.79 3743.27 1982.58 3744.94 1985.36 3747.17 1987.82 3749.96 1989.96 3752.75 1992.09 3756.06 1993.72 3759.87 1994.83 3763.69 1995.95 3767.83 1996.5 3772.29 1996.5 3781.41 1996.5 3788.94 1994.37 3794.9 1990.1 3800.85 1985.64 3803.83 1980.07 3803.83 1973.39 3803.83 1966.7 3800.9 1961.18 3795.04 1956.82 3789.18 1952.45 3781.59 1950.27 3772.29 1950.27ZM3534.56 1941.92C3539.77 1941.92 3543.87 1943.4 3546.84 1946.37 3549.82 1949.34 3551.22 1953.43 3551.03 1958.63L3548.8 2102.06C3548.61 2107.26 3547.08 2111.34 3544.19 2114.32 3541.31 2117.29 3537.26 2118.77 3532.05 2118.77L3439.95 2119.89C3434.74 2119.89 3430.64 2118.4 3427.67 2115.43 3424.69 2112.46 3423.2 2108.37 3423.2 2103.18L3419.57 1959.18C3419.39 1953.98 3420.83 1949.9 3423.9 1946.93 3426.97 1943.96 3431.11 1942.47 3436.32 1942.47ZM3584.24 1936.07 3618.29 1936.07C3623.87 1936.07 3626.57 1938.85 3626.39 1944.42L3624.43 2007.92 3647.6 2007.64C3650.57 2007.64 3652.95 2008.53 3654.71 2010.29 3656.48 2012.05 3657.37 2014.42 3657.37 2017.39L3657.37 2040.23C3657.37 2043.2 3656.48 2045.57 3654.71 2047.33 3652.95 2049.1 3650.57 2049.98 3647.6 2049.98L3623.04 2050.54 3620.25 2141.61C3620.25 2147.18 3617.45 2149.97 3611.87 2149.97L3584.52 2149.97C3578.94 2149.97 3576.15 2147.18 3576.15 2141.61L3576.15 1944.42C3576.15 1938.85 3578.85 1936.07 3584.24 1936.07ZM3287.96 1919.36 3318.11 1919.36C3321.83 1919.36 3324.71 1920.52 3326.76 1922.84 3328.8 1925.16 3329.46 1928.17 3328.71 1931.89L3328.71 1934.67C3326.48 1945.07 3322.85 1954.82 3317.83 1963.92 3327.69 1969.3 3337.83 1973.48 3348.25 1976.45 3358.67 1979.42 3369.46 1981.74 3380.62 1983.41 3383.23 1983.78 3384.95 1985.13 3385.79 1987.45 3386.62 1989.77 3386.67 1991.95 3385.93 1994L3379.23 2018.79C3377.55 2023.06 3373.65 2024.73 3367.51 2023.8 3353.55 2021.76 3340.2 2018.6 3327.46 2014.33 3314.71 2010.06 3302.76 2003.75 3291.59 1995.39 3282.47 2003.37 3272.1 2010.24 3260.47 2016 3248.84 2021.76 3236.33 2026.03 3222.93 2028.81 3220.14 2029.37 3217.54 2029.28 3215.12 2028.53 3212.7 2027.79 3210.93 2026.3 3209.82 2024.08L3202 2005.97C3200.88 2003.56 3200.75 2001.19 3201.58 1998.87 3202.42 1996.55 3204.33 1994.93 3207.3 1994 3216.24 1991.4 3224.61 1988.06 3232.42 1983.97 3240.24 1979.89 3247.17 1975.2 3253.22 1969.91 3259.26 1964.61 3264.29 1958.77 3268.29 1952.36 3272.29 1945.95 3275.12 1939.13 3276.8 1931.89 3277.73 1927.62 3279.03 1924.46 3280.71 1922.42 3282.38 1920.38 3284.8 1919.36 3287.96 1919.36ZM3770.9 1911C3783.36 1911 3794.48 1912.44 3804.25 1915.32 3814.02 1918.2 3822.34 1922.23 3829.23 1927.43 3836.11 1932.63 3841.37 1938.71 3845 1945.67 3848.63 1952.64 3850.44 1960.3 3850.44 1968.65 3850.44 1976.82 3848.58 1984.44 3844.86 1991.49 3841.32 1998.55 3836.11 2004.67 3829.23 2009.87 3822.34 2015.07 3814.02 2019.11 3804.25 2021.99 3794.48 2024.87 3783.36 2026.3 3770.9 2026.3 3758.43 2026.3 3747.27 2024.87 3737.4 2021.99 3727.54 2019.11 3719.17 2015.07 3712.29 2009.87 3705.59 2004.67 3700.42 1998.55 3696.8 1991.49 3693.17 1984.44 3691.35 1976.82 3691.35 1968.65 3691.35 1960.3 3693.17 1952.64 3696.8 1945.67 3700.42 1938.71 3705.63 1932.63 3712.43 1927.43 3719.22 1922.23 3727.54 1918.2 3737.4 1915.32 3747.27 1912.44 3758.43 1911 3770.9 1911Z" fill="#343334" fill-rule="evenodd"/></g></svg>