<svg width="1194" height="1194" xmlns="http://www.w3.org/2000/svg" xmlns:xlink="http://www.w3.org/1999/xlink" xml:space="preserve" overflow="hidden"><g><rect x="0" y="0" width="1194" height="1194" fill="#B200FF"/><rect x="218" y="218" width="758" height="758" stroke="#FFFFFF" stroke-width="91.6667" stroke-miterlimit="8" fill="#B200FF"/><path d="M218 397 976.215 397" stroke="#FFFFFF" stroke-width="91.6667" stroke-miterlimit="8" fill="none" fill-rule="evenodd"/><path d="M0 0 0.000360892 178.61" stroke="#FFFFFF" stroke-width="91.6667" stroke-miterlimit="8" fill="none" fill-rule="evenodd" transform="matrix(1 0 0 -1 825 396.61)"/><path d="M0 0 0.000360892 178.61" stroke="#FFFFFF" stroke-width="91.6667" stroke-miterlimit="8" fill="none" fill-rule="evenodd" transform="matrix(1 0 0 -1 673 396.61)"/><path d="M0 0 0.000360892 178.61" stroke="#FFFFFF" stroke-width="91.6667" stroke-miterlimit="8" fill="none" fill-rule="evenodd" transform="matrix(1 0 0 -1 521 396.61)"/><path d="M0 0 0.000360892 178.61" stroke="#FFFFFF" stroke-width="91.6667" stroke-miterlimit="8" fill="none" fill-rule="evenodd" transform="matrix(1 0 0 -1 370 396.61)"/><path d="M976.215 798 218 797.999" stroke="#FFFFFF" stroke-width="91.6667" stroke-miterlimit="8" fill="none" fill-rule="evenodd"/><path d="M0 0 0.000360892 178.61" stroke="#FFFFFF" stroke-width="91.6667" stroke-miterlimit="8" fill="none" fill-rule="evenodd" transform="matrix(-1 1.22465e-16 1.22465e-16 1 370 798)"/><path d="M0 0 0.000360892 178.61" stroke="#FFFFFF" stroke-width="91.6667" stroke-miterlimit="8" fill="none" fill-rule="evenodd" transform="matrix(-1 1.22465e-16 1.22465e-16 1 521 798)"/><path d="M0 0 0.000360892 178.61" stroke="#FFFFFF" stroke-width="91.6667" stroke-miterlimit="8" fill="none" fill-rule="evenodd" transform="matrix(-1 1.22465e-16 1.22465e-16 1 673 798)"/><path d="M0 0 0.000360892 178.61" stroke="#FFFFFF" stroke-width="91.6667" stroke-miterlimit="8" fill="none" fill-rule="evenodd" transform="matrix(-1 1.22465e-16 1.22465e-16 1 825 798)"/></g></svg>