<svg width="2282" height="473" xmlns="http://www.w3.org/2000/svg" xmlns:xlink="http://www.w3.org/1999/xlink" xml:space="preserve" overflow="hidden"><defs><filter id="fx0" x="-10%" y="-10%" width="120%" height="120%" filterUnits="userSpaceOnUse" primitiveUnits="userSpaceOnUse"><feComponentTransfer color-interpolation-filters="sRGB"><feFuncR type="discrete" tableValues="0 0"/><feFuncG type="discrete" tableValues="0 0"/><feFuncB type="discrete" tableValues="0 0"/><feFuncA type="linear" slope="0.4" intercept="0"/></feComponentTransfer><feGaussianBlur stdDeviation="0 0"/></filter><clipPath id="clip1"><rect x="1059" y="1001" width="2282" height="473"/></clipPath></defs><g clip-path="url(#clip1)" transform="translate(-1059 -1001)"><rect x="1059" y="1001" width="2282" height="473" fill="#FFFFFF" fill-opacity="0"/><g filter="url(#fx0)" transform="translate(1088 1028)"><g><path d="M0.722778 75.2791C0.722778 34.1026 34.1027 0.722534 75.279 0.722534L2161.17 0.722534C2202.34 0.722534 2235.72 34.1026 2235.72 75.2791L2235.72 363.166C2235.72 404.343 2202.34 437.723 2161.17 437.723L75.279 437.723C34.1027 437.723 0.722778 404.343 0.722778 363.166Z" fill="#EFF5DB" fill-rule="evenodd"/></g></g><path d="M1079 1093.56C1079 1052.38 1112.38 1019 1153.56 1019L3239.44 1019C3280.62 1019 3314 1052.38 3314 1093.56L3314 1381.44C3314 1422.62 3280.62 1456 3239.44 1456L1153.56 1456C1112.38 1456 1079 1422.62 1079 1381.44Z" fill="#EFF5DB" fill-rule="evenodd"/><path d="M1100 1092.6C1100 1064.1 1123.1 1041 1151.6 1041L3240.4 1041C3268.9 1041 3292 1064.1 3292 1092.6L3292 1382.4C3292 1410.9 3268.9 1434 3240.4 1434L1151.6 1434C1123.1 1434 1100 1410.9 1100 1382.4Z" stroke="#E3F1BF" stroke-width="10.3125" stroke-miterlimit="8" fill="none" fill-rule="evenodd"/></g></svg>